<?xml version="1.0" encoding="UTF-8"?>
<svg xmlns="http://www.w3.org/2000/svg" xmlns:xlink="http://www.w3.org/1999/xlink" width="73px" height="73px" viewBox="0 0 73 73" version="1.1">
<g id="surface1">
<path style=" stroke:none;fill-rule:evenodd;fill:rgb(15.686275%,85.882353%,81.960784%);fill-opacity:1;" d="M 22.507812 46.671875 C 23.058594 45.710938 22.726562 44.484375 21.769531 43.929688 C 20.808594 43.378906 19.582031 43.703125 19.027344 44.664062 L 14.699219 52.152344 C 7.109375 43.007812 6.027344 30.101562 11.988281 19.824219 C 17.953125 9.546875 29.695312 4.078125 41.402344 6.132812 C 42.265625 5.519531 43.160156 4.957031 44.085938 4.4375 C 31.105469 1.117188 17.476562 6.636719 10.464844 18.050781 C 3.453125 29.464844 4.691406 44.117188 13.519531 54.195312 L 11.761719 57.242188 C 11.207031 58.203125 11.539062 59.433594 12.5 59.988281 C 13.460938 60.542969 14.691406 60.214844 15.246094 59.25 Z M 22.507812 46.671875 "/>
<path style=" stroke:none;fill-rule:evenodd;fill:rgb(15.686275%,85.882353%,81.960784%);fill-opacity:1;" d="M 66.011719 26.136719 C 64.660156 21.0625 62.019531 16.421875 58.347656 12.667969 C 58.359375 13.726562 58.316406 14.789062 58.222656 15.84375 C 65.84375 24.953125 66.976562 37.851562 61.0625 48.152344 C 55.144531 58.453125 43.429688 63.972656 31.71875 61.976562 L 36.039062 54.488281 C 36.597656 53.527344 36.269531 52.296875 35.308594 51.742188 C 34.347656 51.183594 33.117188 51.511719 32.558594 52.472656 L 25.296875 65.058594 C 24.742188 66.019531 25.070312 67.25 26.035156 67.804688 C 26.996094 68.359375 28.226562 68.03125 28.78125 67.066406 L 30.535156 64.019531 C 40.894531 66.078125 51.582031 62.644531 58.800781 54.9375 C 66.023438 47.226562 68.75 36.335938 66.011719 26.136719 Z M 66.011719 26.136719 "/>
<path style=" stroke:none;fill-rule:evenodd;fill:rgb(15.686275%,85.882353%,81.960784%);fill-opacity:1;" d="M 30.566406 44.316406 C 29.605469 43.765625 28.378906 44.09375 27.820312 45.054688 L 15.171875 66.964844 C 14.617188 67.925781 14.949219 69.15625 15.910156 69.710938 C 16.875 70.265625 18.101562 69.933594 18.65625 68.972656 L 31.308594 47.066406 C 31.855469 46.101562 31.527344 44.871094 30.566406 44.316406 Z M 30.566406 44.316406 "/>
<path style=" stroke:none;fill-rule:evenodd;fill:rgb(15.686275%,85.882353%,81.960784%);fill-opacity:1;" d="M 31.457031 23.957031 C 22.132812 24.246094 14.269531 30.996094 12.570312 40.167969 C 27.894531 29.601562 44.652344 39.273438 43.160156 57.828125 C 50.257812 51.773438 52.167969 41.589844 47.753906 33.371094 C 55.808594 25.476562 58.421875 13.5625 54.414062 3.019531 C 43.28125 4.820312 34.269531 13.039062 31.457031 23.957031 Z M 41.328125 15.746094 C 42.699219 13.367188 45.738281 12.554688 48.113281 13.925781 C 50.492188 15.296875 51.304688 18.335938 49.933594 20.710938 C 48.5625 23.089844 45.523438 23.902344 43.144531 22.53125 C 40.769531 21.160156 39.957031 18.121094 41.328125 15.746094 Z M 41.328125 15.746094 "/>
</g>
</svg>
