<?xml version="1.0" standalone="no"?>
<!DOCTYPE svg PUBLIC "-//W3C//DTD SVG 20010904//EN"
 "http://www.w3.org/TR/2001/REC-SVG-20010904/DTD/svg10.dtd">
<svg version="1.0" xmlns="http://www.w3.org/2000/svg"
 width="3788.000000pt" height="3695.000000pt" viewBox="0 0 3788.000000 3695.000000"
 preserveAspectRatio="xMidYMid meet">

<g transform="translate(0.000000,3695.000000) scale(0.100000,-0.100000)"
fill="#000000" stroke="none">
<path d="M14118 34473 c-10 -2 -18 -7 -18 -10 0 -3 52 -90 115 -194 110 -181
131 -229 102 -229 -13 0 -35 34 -196 298 -55 90 -66 102 -85 96 -45 -14 -191
-83 -194 -92 -2 -8 107 -195 212 -361 26 -40 29 -71 7 -71 -5 0 -66 95 -137
210 -70 116 -131 209 -135 208 -90 -37 -189 -84 -189 -91 0 -4 53 -94 117
-200 64 -106 119 -202 121 -214 8 -42 -26 -25 -61 30 -86 135 -217 356 -217
366 0 7 -6 8 -17 2 -10 -5 -31 -14 -48 -21 -27 -11 -28 -13 -13 -24 10 -7 15
-16 11 -20 -4 -4 0 -4 10 0 9 3 15 9 12 13 -2 4 2 8 10 8 18 0 19 -9 4 -24 -8
-8 0 -27 28 -69 21 -33 45 -74 52 -91 7 -18 17 -33 21 -33 5 0 15 -19 22 -42
19 -56 42 -64 34 -12 -5 31 -4 35 5 21 6 -11 8 -34 4 -53 -4 -26 -2 -36 10
-40 8 -3 15 -13 15 -21 0 -7 10 -24 23 -37 13 -13 21 -28 19 -34 -2 -6 6 -8
20 -5 39 10 18 -3 -110 -67 -67 -33 -122 -63 -122 -66 0 -2 12 -2 28 1 15 3
21 2 15 -1 -24 -11 -13 -24 15 -19 128 22 974 432 968 469 -1 6 -5 17 -9 24
-5 7 -3 12 4 12 7 0 10 2 7 5 -3 3 -45 -12 -93 -35 -48 -22 -89 -40 -91 -40
-2 0 -4 7 -4 15 0 8 -9 20 -20 27 -11 7 -20 18 -20 24 0 6 -7 17 -15 24 -9 7
-14 19 -11 27 3 8 1 11 -4 8 -6 -3 -10 0 -10 8 0 8 -7 17 -15 21 -11 4 -14 14
-10 33 4 21 3 23 -3 9 -8 -18 -10 -16 -22 15 -7 18 -14 36 -14 39 -11 34 -19
51 -23 47 -2 -3 1 -15 7 -27 8 -14 8 -20 1 -16 -6 4 -15 25 -21 47 -7 25 -15
37 -22 33 -8 -5 -9 -1 -5 10 4 10 3 15 -3 11 -12 -7 -33 32 -24 47 5 7 3 8 -5
4 -8 -6 -11 -2 -9 10 2 12 -2 18 -11 16 -12 -3 -12 0 -1 12 7 9 11 15 9 15 -2
-1 -12 -3 -21 -6z m446 -401 c3 -5 -1 -9 -9 -9 -8 0 -12 4 -9 9 3 4 7 8 9 8 2
0 6 -4 9 -8z m-940 -68 c3 -8 2 -12 -4 -9 -6 3 -10 10 -10 16 0 14 7 11 14 -7z"/>
<path d="M13381 34098 c6 -13 46 -79 89 -148 42 -69 92 -151 110 -182 31 -53
61 -80 46 -43 -6 16 -157 268 -209 348 -31 47 -58 66 -36 25z"/>
<path d="M12208 33842 c52 -87 129 -213 171 -282 80 -131 111 -161 185 -181
59 -16 188 -17 193 -1 3 8 -1 10 -14 5 -15 -6 -16 -4 -5 9 11 13 4 16 -57 22
-87 8 -99 12 -103 39 -2 12 -9 21 -15 20 -8 -2 -10 4 -6 14 4 11 3 14 -5 9 -7
-4 -12 -2 -12 3 0 6 7 11 15 11 28 0 15 35 -56 150 -40 63 -94 152 -121 198
-41 69 -53 82 -74 82 l-26 0 19 -32 c11 -18 68 -113 128 -211 82 -136 105
-181 96 -190 -8 -8 -17 -8 -27 -2 -28 18 -256 405 -251 426 4 13 0 19 -11 19
-10 0 -40 11 -68 24 l-52 24 96 -156z"/>
<path d="M14180 30972 l-175 -277 1 -70 c1 -52 8 -87 28 -137 28 -69 71 -125
59 -76 -6 21 -5 22 10 9 14 -11 12 1 -9 55 -35 92 -38 104 -26 104 11 0 28 38
24 53 -2 7 10 10 43 8 16 -1 47 42 138 189 65 105 122 188 127 185 4 -3 3 11
-3 30 -6 20 -14 32 -19 27 -4 -4 -63 -95 -131 -202 -116 -183 -147 -219 -155
-178 -5 23 238 410 260 416 16 4 18 12 12 71 -4 36 -7 67 -8 68 -1 1 -80 -123
-176 -275z"/>
<path d="M14906 29993 c-66 -103 -126 -194 -135 -200 -13 -11 -12 -13 5 -13
13 0 38 31 84 106 36 58 72 116 80 129 59 90 91 147 88 156 -2 6 -57 -74 -122
-178z"/>
<path d="M15136 30112 c-3 -6 1 -13 10 -16 23 -9 28 -2 10 13 -8 7 -17 8 -20
3z"/>
<path d="M15129 30076 c6 -7 6 -17 1 -26 -6 -8 -10 -11 -10 -6 0 6 -9 0 -20
-12 -11 -12 -20 -24 -20 -27 0 -4 -6 -13 -14 -21 -10 -10 -13 -26 -9 -51 4
-24 3 -34 -5 -30 -5 4 -8 17 -5 28 4 16 2 20 -8 17 -8 -3 -16 -16 -19 -29 -3
-13 -17 -41 -32 -60 -16 -20 -28 -41 -28 -47 0 -6 -10 -18 -21 -26 -14 -9 -19
-21 -15 -31 4 -12 2 -16 -8 -12 -10 4 -12 0 -9 -14 3 -10 0 -19 -6 -19 -6 0
-11 -7 -11 -16 0 -8 -5 -12 -10 -9 -17 10 -23 -24 -9 -42 10 -12 2 -10 -26 7
-22 13 -42 26 -45 29 -19 21 -111 91 -119 91 -6 0 -11 5 -11 11 0 8 -5 7 -15
-1 -9 -7 -12 -16 -8 -19 4 -3 9 -13 11 -21 5 -23 26 -43 162 -159 295 -252
632 -498 678 -495 46 3 45 20 -5 57 -59 43 -116 103 -90 94 10 -4 16 -3 13 1
-3 5 3 16 12 25 29 27 39 42 35 54 -3 7 3 24 12 40 9 15 14 20 11 11 -3 -10
-1 -18 5 -18 6 0 9 8 8 18 -4 27 33 95 43 80 7 -10 8 -9 7 2 -3 30 1 41 13 34
8 -5 9 -2 5 10 -4 10 -3 15 3 11 6 -3 10 1 10 10 0 8 11 20 25 25 14 5 25 12
25 14 0 3 -6 3 -14 0 -11 -4 -9 5 6 35 24 48 27 50 20 15 -3 -18 -1 -25 6 -20
6 3 11 14 11 24 0 9 2 32 5 50 3 17 4 32 2 32 -2 0 -34 -48 -72 -107 -156
-248 -187 -293 -200 -293 -31 0 -9 47 102 222 64 101 118 188 121 194 6 15
-170 164 -184 156 -5 -4 -30 -39 -54 -79 -131 -215 -195 -313 -207 -317 -30
-13 -20 27 26 101 27 43 86 135 130 205 l80 126 -61 49 c-111 88 -108 86 -119
75 -6 -6 -65 -98 -132 -204 -69 -110 -127 -193 -136 -193 -20 0 -25 33 -7 53
8 9 63 96 122 192 59 96 114 180 122 187 18 14 3 25 -43 28 -24 1 -31 -1 -25
-9z m-141 -271 c-3 -3 -9 2 -12 12 -6 14 -5 15 5 6 7 -7 10 -15 7 -18z m455
-510 c-3 -9 -8 -14 -10 -11 -3 3 -2 9 2 15 9 16 15 13 8 -4z m87 -189 c0 -2
-7 -7 -16 -10 -8 -3 -12 -2 -9 4 6 10 25 14 25 6z"/>
<path d="M15670 29666 c0 -2 12 -12 28 -21 l27 -18 -19 21 c-17 20 -36 29 -36
18z"/>
<path d="M15586 29505 c-9 -26 -7 -32 5 -12 6 10 9 21 6 23 -2 3 -7 -2 -11
-11z"/>
<path d="M23590 25886 c0 -4 43 -145 95 -314 l94 -307 46 -42 c46 -42 147 -88
172 -79 8 4 11 1 7 -5 -4 -7 3 -9 17 -7 16 2 24 10 24 22 0 13 -17 24 -64 41
-62 23 -92 46 -69 54 6 2 0 10 -13 18 -13 8 -16 12 -7 9 12 -3 15 -1 11 10 -3
7 -13 14 -22 15 -11 0 -10 3 5 9 12 5 24 13 27 17 3 5 -5 45 -19 89 -14 43
-27 86 -29 94 -3 8 -20 66 -40 129 -19 62 -35 119 -35 126 0 7 -13 18 -29 23
l-29 10 13 -46 c7 -26 38 -127 69 -224 31 -97 56 -184 56 -193 0 -11 -7 -15
-22 -13 -20 3 -31 29 -95 237 -52 168 -70 238 -62 247 7 9 4 14 -11 19 -12 4
-37 20 -56 37 -19 17 -34 27 -34 24z"/>
<path d="M25620 25868 c0 -2 31 -102 69 -223 51 -162 66 -223 58 -233 -19 -24
-34 8 -102 228 -37 118 -68 216 -69 216 -2 4 -231 -37 -235 -42 -3 -2 25 -101
62 -219 68 -218 77 -260 55 -253 -14 5 -33 56 -110 303 -27 88 -51 161 -53
163 -4 5 -199 -30 -207 -37 -4 -4 24 -107 62 -230 39 -122 70 -229 70 -237 0
-8 -9 -14 -19 -14 -16 0 -28 27 -69 158 -28 86 -61 194 -73 239 -23 82 -23 82
-54 76 -57 -9 -58 -11 -36 -39 11 -14 28 -60 37 -102 9 -42 23 -83 31 -91 9
-8 12 -23 8 -38 -4 -16 -2 -22 5 -18 5 3 10 -3 10 -14 0 -11 9 -44 19 -73 11
-29 23 -69 26 -88 4 -19 13 -38 19 -42 7 -5 3 -8 -9 -9 -13 -1 -10 -4 10 -8
l30 -8 -45 -12 c-25 -8 -83 -22 -130 -32 -47 -9 -74 -18 -60 -19 23 -1 23 -2
5 -10 -11 -5 -14 -9 -7 -9 7 -1 10 -6 7 -11 -20 -32 473 51 808 136 220 56
259 69 234 79 -14 6 -15 10 -5 23 12 14 8 14 -32 8 -133 -21 -130 -21 -130 8
0 16 -4 25 -10 21 -6 -3 -10 5 -10 19 0 14 -5 28 -10 31 -6 4 -8 16 -4 27 4
15 3 18 -6 13 -10 -6 -12 0 -7 26 4 20 3 29 -2 21 -6 -11 -10 -10 -15 3 -9 26
-7 42 4 25 6 -9 10 -10 10 -3 0 6 -7 18 -15 26 -8 8 -12 17 -9 20 3 3 3 20 -1
38 -5 23 -10 28 -16 18 -6 -10 -9 -6 -9 14 0 15 -4 27 -10 27 -5 0 -10 7 -10
16 0 8 4 12 10 9 6 -3 7 1 4 9 -3 9 -10 16 -14 16 -4 0 -7 12 -7 26 0 15 -7
30 -14 35 -12 7 -12 9 0 9 11 0 11 3 1 15 -10 12 -41 22 -40 13z m100 -218 c0
-5 -2 -10 -4 -10 -3 0 -8 5 -11 10 -3 6 -1 10 4 10 6 0 11 -4 11 -10z"/>
<path d="M24830 25707 c0 -2 6 -23 14 -48 18 -54 112 -355 121 -388 4 -14 10
-20 16 -14 6 6 6 19 0 34 -6 13 -33 98 -61 189 -28 91 -56 180 -61 198 -6 17
-15 32 -20 32 -5 0 -9 -1 -9 -3z"/>
<path d="M24055 25130 c-3 -6 1 -7 9 -4 18 7 21 14 7 14 -6 0 -13 -4 -16 -10z"/>
<path d="M8417 24952 c-9 -23 -67 -155 -129 -294 -104 -233 -113 -258 -113
-313 1 -47 8 -74 34 -126 38 -78 93 -148 86 -112 -3 16 0 20 11 16 17 -6 19
13 3 23 -6 4 -25 35 -40 71 l-29 63 22 31 c19 26 20 31 8 39 -20 13 -4 13 20
0 12 -7 21 -6 28 3 5 6 50 105 100 219 83 187 90 209 79 231 -13 24 -13 24
-23 3 -5 -11 -50 -112 -99 -224 -65 -146 -94 -202 -105 -200 -8 2 -16 11 -18
19 -5 28 183 444 202 447 12 3 15 9 10 20 -4 10 -12 41 -19 71 l-11 55 -17
-42z"/>
<path d="M9232 23990 c-11 -25 -52 -119 -92 -210 -39 -91 -77 -171 -83 -179
-9 -10 -8 -13 6 -10 12 3 35 42 68 119 27 63 54 124 58 135 5 11 24 52 41 92
18 39 30 77 27 85 -2 7 -13 -7 -25 -32z"/>
<path d="M9379 23970 c37 -36 40 -46 6 -24 l-25 16 0 -36 c0 -21 -7 -43 -18
-54 -21 -21 -56 -109 -54 -135 0 -9 -3 -15 -8 -12 -5 3 -12 -6 -16 -21 -4 -15
-17 -46 -30 -68 -24 -41 -35 -89 -14 -56 12 18 12 2 0 -25 -5 -11 -9 -14 -9
-6 -1 18 -31 -6 -31 -25 0 -8 -6 -14 -12 -14 -8 0 -9 -3 -3 -8 6 -4 11 -15 11
-24 1 -14 -13 -10 -75 24 -42 23 -93 52 -114 65 -20 13 -37 20 -36 16 3 -20
-2 -34 -11 -28 -6 3 -7 -1 -4 -10 4 -8 56 -48 118 -89 302 -199 781 -455 826
-441 11 4 18 11 15 16 -4 5 0 9 6 9 7 0 -24 23 -69 51 -79 48 -101 65 -65 52
10 -4 14 -2 10 4 -4 6 0 14 9 17 9 4 14 9 11 13 -4 3 3 19 14 34 11 16 16 29
10 29 -15 0 -14 27 1 36 7 5 8 3 3 -6 -5 -8 -4 -11 3 -7 5 4 8 16 5 28 -4 13
3 29 20 47 19 20 25 34 20 51 -4 16 -3 22 5 17 15 -9 28 19 36 76 4 26 11 50
16 53 6 4 7 -2 3 -12 -3 -10 -3 -15 1 -12 4 4 9 24 12 45 3 21 10 43 16 49 7
7 9 6 5 -1 -4 -7 -1 -14 7 -17 19 -8 14 23 -6 34 -18 10 -10 24 -120 -226 -75
-171 -92 -200 -110 -189 -16 10 -6 38 83 240 50 113 88 208 86 211 -11 10
-200 123 -203 121 -1 -2 -24 -50 -49 -108 -26 -58 -64 -143 -86 -190 -21 -47
-43 -97 -48 -112 -11 -29 -41 -39 -41 -13 0 8 12 40 26 72 14 32 39 87 54 123
16 36 47 107 69 159 23 52 40 95 38 96 -1 1 -43 26 -94 57 l-91 56 -99 -221
c-68 -154 -103 -223 -115 -225 -12 -2 -18 3 -18 15 0 20 179 435 192 444 7 5
-75 69 -89 69 -3 0 8 -14 26 -30z m-2 -92 c-3 -7 -5 -2 -5 12 0 14 2 19 5 13
2 -7 2 -19 0 -25z m-407 -328 c0 -5 -5 -10 -11 -10 -5 0 -7 5 -4 10 3 6 8 10
11 10 2 0 4 -4 4 -10z m921 -117 c-12 -20 -14 -14 -5 12 4 9 9 14 11 11 3 -2
0 -13 -6 -23z m-29 -75 c-7 -7 -12 -8 -12 -2 0 14 12 26 19 19 2 -3 -1 -11 -7
-17z m-58 -141 c-3 -8 -12 -18 -20 -21 -11 -4 -11 0 2 20 18 26 28 27 18 1z"/>
<path d="M2070 23042 c0 -7 -25 -148 -55 -312 -30 -164 -55 -312 -55 -328 0
-39 42 -119 90 -170 22 -23 40 -40 40 -36 0 3 11 -7 23 -22 18 -21 26 -24 32
-14 6 9 4 11 -6 6 -8 -4 -5 0 5 8 19 15 18 17 -23 59 -23 23 -51 57 -63 75
-18 28 -18 31 -3 26 14 -6 16 -3 10 14 -4 13 -2 22 4 22 6 0 8 7 5 15 -4 10 0
15 15 15 24 0 21 -12 61 220 17 96 35 192 39 212 7 30 5 40 -9 53 -17 15 -18
13 -29 -32 -6 -26 -22 -111 -36 -188 -41 -227 -46 -245 -59 -245 -33 0 -32 23
11 258 28 153 48 241 58 248 10 7 11 14 4 21 -6 6 -21 33 -35 59 -13 27 -24
43 -24 36z m75 -842 c3 -6 -1 -7 -9 -4 -18 7 -21 14 -7 14 6 0 13 -4 16 -10z"/>
<path d="M23755 22285 c4 -176 11 -334 16 -351 13 -44 56 -97 109 -137 53 -40
105 -68 113 -61 10 11 -25 64 -56 83 -18 11 -43 31 -55 44 -19 20 -20 25 -8
30 21 8 9 47 -24 77 l-28 25 -3 243 c-3 188 -1 244 9 251 9 5 5 14 -14 32 -15
13 -35 38 -46 54 -19 30 -19 28 -13 -290z"/>
<path d="M23867 22217 c4 -240 5 -252 23 -255 11 -2 20 2 20 10 1 35 -2 407
-3 435 -2 21 -10 38 -24 48 l-21 15 5 -253z"/>
<path d="M3071 22203 c-13 -65 -31 -165 -41 -223 -10 -58 -22 -113 -25 -122
-4 -10 -3 -18 3 -18 12 0 21 21 28 64 2 17 20 114 39 216 18 102 30 188 26
193 -4 4 -18 -46 -30 -110z"/>
<path d="M3219 22291 c7 -5 11 -13 7 -19 -4 -6 3 -8 16 -6 18 3 16 1 -7 -11
l-30 -16 30 5 c28 5 28 5 8 -6 -13 -6 -24 -20 -24 -32 -1 -12 -2 -28 -3 -38
-1 -9 -4 -20 -8 -24 -5 -4 -8 -17 -7 -28 0 -21 1 -21 9 -1 l9 20 0 -20 c0 -11
-4 -27 -9 -35 -9 -13 -10 -13 -11 0 -1 8 -5 -7 -10 -35 -4 -27 -13 -51 -19
-53 -5 -2 -10 -29 -10 -61 0 -31 -5 -62 -11 -68 -6 -6 -9 -35 -7 -67 3 -62 1
-64 -59 -42 -97 37 -154 49 -166 37 -9 -9 -8 -14 3 -22 11 -8 9 -9 -10 -4 -16
5 -22 4 -15 -3 11 -11 277 -106 405 -145 318 -97 712 -187 652 -148 -16 10
-17 21 -3 30 5 4 -31 20 -80 35 -68 22 -87 31 -75 38 9 5 14 13 11 19 -4 5 2
6 12 2 16 -6 16 -5 5 9 -10 13 -11 22 -2 38 6 12 10 24 7 26 -2 3 -10 -9 -17
-25 -7 -17 -18 -35 -25 -41 -8 -6 -5 5 6 27 10 20 19 45 19 55 0 9 5 20 11 24
6 3 9 17 6 30 -2 13 -1 22 2 20 3 -2 7 17 7 44 1 26 7 57 13 68 6 12 13 47 15
79 2 32 10 75 19 95 14 33 14 37 0 42 -9 4 -17 5 -18 4 -1 -2 -19 -101 -40
-222 -40 -220 -53 -262 -75 -239 -9 9 -4 57 24 210 20 109 37 213 38 232 l3
33 -109 35 c-60 19 -112 31 -116 26 -4 -4 -24 -102 -45 -218 -40 -225 -49
-260 -65 -250 -15 10 -13 34 30 265 22 118 40 218 40 222 0 9 -200 71 -207 64
-3 -2 -23 -101 -44 -218 -21 -117 -41 -223 -44 -235 -6 -25 -32 -31 -40 -10
-3 6 14 119 38 249 l43 237 -38 16 c-42 17 -61 20 -39 6z"/>
<path d="M25008 22083 c7 -3 16 -2 19 1 4 3 -2 6 -13 5 -11 0 -14 -3 -6 -6z"/>
<path d="M24894 22019 c3 -34 6 -142 6 -240 0 -113 4 -179 10 -179 12 0 13
111 3 328 -3 89 -10 152 -16 152 -6 0 -7 -23 -3 -61z"/>
<path d="M25035 22069 c-4 -5 -2 -114 5 -242 11 -220 11 -232 -7 -245 -17 -13
-17 -14 5 -7 23 7 28 -12 7 -27 -6 -4 -2 -8 8 -8 9 0 17 -3 17 -8 0 -7 -163 1
-242 11 -34 4 -35 0 -6 -24 20 -18 20 -19 2 -20 -83 -5 486 -74 686 -84 186
-8 417 -13 398 -8 -10 2 -18 8 -18 13 0 5 8 7 18 4 16 -5 16 -5 -1 6 -9 6 -15
15 -12 19 2 5 -21 12 -53 15 -79 9 -112 16 -111 24 3 20 -2 32 -11 27 -5 -3
-10 -1 -10 4 0 6 3 11 8 11 4 0 8 106 8 235 0 187 -3 236 -14 240 -11 4 -13
-37 -11 -230 1 -130 -1 -238 -4 -241 -3 -4 -13 -4 -22 -1 -12 5 -15 24 -15 95
0 49 -3 156 -7 239 l-6 150 -86 7 c-47 4 -101 9 -120 13 l-33 6 2 -234 c3
-274 4 -259 -13 -259 -15 0 -27 188 -27 400 l0 97 -72 7 c-40 4 -91 9 -112 13
l-39 6 7 -235 c4 -129 4 -242 0 -251 -8 -22 -31 -22 -38 1 -3 9 -6 124 -8 254
l-3 238 -32 0 c-17 0 -35 -5 -38 -11z m22 -256 c-2 -21 -4 -6 -4 32 0 39 2 55
4 38 2 -18 2 -50 0 -70z"/>
<path d="M3881 21994 c0 -11 3 -14 6 -6 3 7 2 16 -1 19 -3 4 -6 -2 -5 -13z"/>
<path d="M17993 21972 c-8 -5 36 -68 127 -185 76 -97 141 -184 144 -192 6 -18
-21 -33 -34 -19 -6 6 -261 330 -285 362 -4 4 -205 -119 -205 -126 0 -4 65 -90
144 -191 128 -163 157 -211 126 -211 -5 0 -75 85 -157 190 -81 104 -152 189
-158 189 -5 0 -50 -24 -98 -53 l-88 -53 147 -189 c81 -104 147 -195 148 -203
1 -9 -6 -17 -15 -19 -11 -2 -44 32 -100 105 -45 59 -89 115 -96 123 -21 24
-98 125 -112 149 -7 11 -16 9 -50 -9 -40 -23 -40 -24 -19 -38 19 -14 22 -13
34 3 8 10 14 14 14 8 0 -7 -4 -15 -10 -18 -14 -9 -12 -25 3 -25 6 0 22 -23 35
-50 20 -45 42 -66 42 -40 0 6 5 10 10 10 7 0 7 -6 0 -19 -8 -16 -1 -28 45 -76
30 -31 62 -72 70 -91 8 -18 20 -34 28 -34 8 0 26 -17 41 -37 l27 -38 -24 -20
c-14 -11 -63 -44 -111 -74 -86 -54 -104 -72 -50 -50 43 18 51 18 51 3 0 -9 -4
-10 -11 -5 -7 6 -19 4 -30 -5 -19 -13 -18 -14 10 -10 42 5 74 17 74 27 0 5 5
9 12 9 20 0 304 166 458 267 235 155 463 323 371 274 -25 -14 -27 -8 -5 13 9
9 11 16 4 16 -6 0 -8 5 -4 11 3 6 -23 -8 -58 -30 -36 -23 -69 -41 -73 -41 -5
0 -17 -8 -28 -17 -19 -17 -20 -17 -14 -1 6 18 -24 44 -37 31 -3 -3 -6 0 -6 7
0 7 8 19 18 27 9 8 11 11 3 7 -7 -3 -18 0 -23 7 -8 11 -9 10 -4 -4 3 -11 2
-16 -4 -12 -6 3 -10 12 -10 19 0 8 -11 21 -24 29 -16 11 -23 24 -22 44 0 15
-3 28 -9 28 -22 0 -51 31 -50 55 0 16 -6 25 -15 25 -8 0 -30 14 -47 32 -32 30
-44 51 -23 38 6 -4 7 1 3 11 -4 11 -8 13 -11 6 -2 -7 -8 -10 -12 -7 -5 3 -7
11 -4 18 6 17 -38 58 -53 49z m46 -46 c-3 -3 -11 5 -18 17 -13 21 -12 21 5 5
10 -10 16 -20 13 -22z m102 -129 c-10 -9 -11 -8 -5 6 3 10 9 15 12 12 3 -3 0
-11 -7 -18z m64 -59 c5 4 5 1 1 -6 -6 -10 -11 -10 -22 -1 -8 6 -14 14 -14 16
0 3 6 0 13 -6 8 -6 18 -7 22 -3z m-661 -204 c3 -8 2 -12 -4 -9 -6 3 -10 10
-10 16 0 14 7 11 14 -7z m21 -84 c3 -5 1 -10 -4 -10 -6 0 -11 5 -11 10 0 6 2
10 4 10 3 0 8 -4 11 -10z m70 -72 l16 -33 -21 24 c-11 13 -20 27 -20 32 0 18
10 8 25 -23z"/>
<path d="M25730 21781 c0 -17 4 -32 8 -35 4 -2 6 11 4 30 -5 42 -12 45 -12 5z"/>
<path d="M25731 21684 c0 -11 3 -14 6 -6 3 7 2 16 -1 19 -3 4 -6 -2 -5 -13z"/>
<path d="M17307 21528 c4 -7 61 -82 128 -167 66 -84 130 -167 143 -184 16 -23
22 -27 22 -14 0 15 -46 85 -70 107 -3 3 -35 43 -70 90 -36 47 -70 90 -76 95
-6 6 -23 27 -39 48 -25 34 -57 54 -38 25z"/>
<path d="M16096 21232 c15 -20 69 -89 119 -152 50 -63 128 -164 174 -224 107
-138 131 -151 276 -150 57 0 109 5 120 12 20 11 19 11 -2 12 -15 0 -21 5 -17
15 5 11 -1 13 -30 8 -19 -3 -60 -2 -90 1 -42 6 -54 11 -49 22 3 8 0 14 -7 14
-6 0 -9 4 -5 9 3 5 -5 13 -16 16 -20 7 -20 8 -6 17 24 13 21 25 -15 72 -53 67
-228 290 -244 309 -7 9 -25 17 -39 17 -20 0 -23 -3 -15 -12 6 -7 32 -42 59
-78 27 -36 88 -114 135 -175 47 -60 86 -117 86 -127 0 -43 -39 -13 -125 98
-49 64 -116 149 -147 188 -32 39 -58 78 -58 88 0 11 -10 20 -27 23 -16 4 -45
13 -66 20 l-39 14 28 -37z"/>
<path d="M31137 20193 c-25 -4 -27 -7 -15 -21 11 -13 11 -14 -1 -8 -9 6 -12 5
-9 -5 3 -10 20 -13 61 -11 64 4 120 -5 111 -19 -3 -5 0 -9 5 -9 6 0 11 -6 11
-14 0 -8 7 -16 15 -20 13 -5 13 -9 3 -26 -9 -14 -10 -25 -3 -35 6 -8 68 -93
139 -190 104 -140 134 -175 152 -175 13 0 24 2 24 5 0 6 -20 34 -183 253 -79
108 -96 136 -87 148 7 7 18 10 25 6 8 -4 77 -92 155 -196 103 -137 139 -193
135 -207 -5 -15 -1 -19 18 -19 13 0 43 -7 66 -15 51 -18 59 -32 -98 180 -240
325 -243 329 -292 353 -46 23 -169 36 -232 25z"/>
<path d="M8380 19973 c-18 -65 -57 -199 -87 -297 -29 -99 -53 -198 -53 -221 0
-51 44 -142 101 -207 42 -50 63 -59 73 -32 4 9 2 13 -5 8 -7 -4 -10 -1 -7 7 2
7 -14 38 -37 68 -42 54 -42 55 -29 97 7 23 9 45 6 49 -4 4 2 5 14 1 30 -9 30
-10 104 254 10 36 27 96 39 134 17 59 18 72 6 88 -7 11 -15 16 -18 11 -5 -8
-67 -213 -108 -358 -12 -44 -26 -85 -31 -92 -12 -16 -38 -5 -38 16 0 35 131
457 145 467 13 9 12 16 -5 50 -11 21 -20 46 -20 56 0 46 -19 8 -50 -99z m14
-749 c3 -8 2 -12 -4 -9 -6 3 -10 10 -10 16 0 14 7 11 14 -7z"/>
<path d="M30262 19887 c-12 -7 -19 -17 -15 -22 4 -4 3 -5 -4 -1 -27 15 -384
-186 -696 -391 -124 -82 -228 -163 -209 -163 5 0 15 7 22 15 16 19 34 19 27 0
-11 -28 9 -23 77 16 38 22 70 38 71 37 1 -2 8 -14 15 -27 10 -19 14 -21 21
-10 7 12 9 11 9 -1 0 -8 13 -28 29 -43 16 -16 27 -36 25 -45 -5 -21 19 -53 42
-56 10 -2 20 -9 22 -16 3 -8 0 -10 -8 -5 -9 6 -10 3 -2 -11 11 -21 51 -59 61
-59 9 1 30 -63 23 -70 -4 -3 1 -3 11 1 10 3 17 1 17 -5 0 -6 -5 -11 -11 -11
-5 0 -7 -5 -3 -11 4 -8 9 -7 14 2 6 9 12 9 24 -4 21 -20 20 -28 -1 -21 -10 3
-8 0 5 -8 18 -11 20 -16 10 -28 -11 -12 -10 -12 2 -3 8 6 21 12 28 14 7 3 -43
79 -128 193 -77 104 -139 194 -137 200 10 31 45 -2 147 -139 61 -82 123 -166
138 -186 l27 -37 102 57 c56 31 102 61 103 66 0 6 -34 56 -76 112 -44 60 -72
108 -68 114 4 7 3 9 -4 5 -12 -7 -122 134 -122 158 0 39 33 5 155 -160 72 -97
137 -185 145 -195 14 -18 19 -17 108 33 50 28 92 55 92 60 0 5 -62 91 -137
191 -130 173 -153 215 -126 224 12 4 303 -376 303 -396 0 -6 16 -1 36 11 23
14 31 23 24 28 -9 6 -9 9 1 13 8 3 3 6 -11 6 -18 1 -21 4 -12 10 11 6 10 10
-5 16 -10 5 -21 8 -25 7 -4 -1 -5 4 -2 11 2 7 -7 24 -21 37 -14 13 -25 29 -25
35 0 7 -9 20 -20 30 -12 10 -18 25 -15 32 2 8 0 11 -5 8 -6 -3 -15 6 -20 21
-13 33 -42 57 -51 42 -4 -5 -9 -3 -12 7 -4 9 -3 13 3 10 18 -11 10 12 -10 30
-11 10 -20 26 -20 37 0 10 -6 18 -13 18 -8 0 -20 12 -27 26 -11 20 -19 24 -40
19 -23 -6 -23 -4 10 24 19 17 39 30 43 31 19 1 127 79 118 85 -18 10 -13 35 5
28 11 -4 12 -8 4 -13 -8 -5 -7 -9 3 -13 23 -9 29 4 10 25 -19 21 -21 21 -51 5z
m36 -413 c-4 -3 -12 5 -18 18 -12 22 -12 22 6 6 10 -10 15 -20 12 -24z m-633
-250 c9 -15 12 -23 6 -20 -11 7 -35 46 -28 46 3 0 12 -12 22 -26z m66 -87 l11
-22 -21 22 c-22 23 -28 39 -11 28 5 -3 15 -16 21 -28z m57 -82 c-3 -3 -9 2
-12 12 -6 14 -5 15 5 6 7 -7 10 -15 7 -18z"/>
<path d="M30280 19757 c0 -10 21 -46 48 -81 26 -35 55 -75 64 -88 32 -44 137
-183 148 -195 23 -27 28 -11 7 20 -30 44 -230 311 -238 317 -3 3 -11 14 -17
25 -10 18 -11 18 -12 2z"/>
<path d="M29600 19275 c7 -8 17 -15 22 -15 6 0 5 7 -2 15 -7 8 -17 15 -22 15
-6 0 -5 -7 2 -15z"/>
<path d="M9322 19153 c-17 -60 -45 -157 -63 -218 -17 -60 -36 -116 -41 -122
-8 -10 -6 -13 6 -13 9 0 16 1 16 3 0 2 29 102 65 222 36 121 61 223 57 227 -5
5 -23 -40 -40 -99z"/>
<path d="M9488 19214 c6 -11 0 -32 -18 -68 -19 -36 -26 -62 -22 -84 2 -20 0
-32 -7 -32 -6 0 -11 -7 -11 -16 0 -23 -50 -187 -62 -200 -5 -7 -8 -16 -7 -20
3 -16 -13 -74 -22 -80 -5 -3 -7 -10 -4 -15 4 -5 3 -9 0 -9 -8 0 -175 67 -195
79 -10 5 -20 3 -30 -7 -13 -14 -12 -15 3 -9 9 3 17 2 17 -3 0 -6 -5 -10 -11
-10 -62 0 300 -172 607 -289 119 -44 375 -131 389 -131 3 0 3 5 0 10 -3 6 2
10 12 11 16 0 16 1 -2 8 l-20 8 20 5 c14 3 3 10 -38 26 -85 32 -122 53 -109
61 6 4 13 22 15 41 2 19 11 47 21 62 10 16 15 35 11 47 -3 10 -1 22 4 25 6 4
7 14 4 23 -4 11 -3 14 5 9 8 -5 13 1 14 16 0 13 2 28 3 33 2 6 3 20 4 33 0 13
5 21 10 18 4 -3 6 6 3 21 -4 20 -2 24 8 18 10 -6 12 -4 7 10 -4 9 -2 23 3 31
6 7 10 18 9 26 -4 21 12 68 23 68 6 0 5 7 -2 15 -7 9 -15 14 -17 12 -2 -2 -31
-98 -64 -212 -63 -217 -73 -245 -90 -245 -21 0 -19 31 6 116 47 160 103 359
102 360 -1 0 -51 21 -111 47 -60 26 -110 46 -112 45 -1 -2 -27 -88 -57 -193
-69 -236 -80 -267 -92 -268 -22 -4 -13 44 46 246 34 117 64 217 66 223 2 6
-36 28 -84 49 -48 22 -94 43 -100 48 -16 12 -12 23 -88 -239 -35 -119 -68
-221 -74 -227 -8 -8 -14 -8 -23 1 -12 12 6 86 91 367 l37 123 -33 16 c-42 20
-46 20 -35 0z m522 -651 c-11 -17 -11 -17 -6 0 3 10 6 24 7 30 0 9 2 9 5 0 3
-7 0 -20 -6 -30z"/>
<path d="M21800 18844 c0 -21 102 -605 110 -630 21 -64 159 -164 232 -168 53
-2 39 21 -36 62 -62 33 -69 41 -72 71 -3 19 -9 40 -14 46 -8 9 -5 14 10 18 24
6 25 30 5 137 -8 41 -24 135 -37 208 -21 126 -23 134 -50 148 -20 11 -26 11
-23 2 3 -7 23 -116 45 -243 39 -224 40 -255 7 -242 -16 6 -16 5 -63 280 -28
164 -33 211 -24 223 7 8 8 14 2 14 -5 0 -28 18 -51 40 -22 22 -41 37 -41 34z
m370 -784 c0 -5 -5 -10 -11 -10 -5 0 -7 5 -4 10 3 6 8 10 11 10 2 0 4 -4 4
-10z"/>
<path d="M23814 18543 c26 -119 74 -439 66 -447 -25 -25 -36 10 -75 234 l-40
233 -114 -6 c-62 -3 -117 -9 -121 -14 -4 -4 10 -109 31 -233 22 -123 37 -231
34 -238 -16 -42 -32 12 -70 234 l-41 239 -109 -2 c-59 -2 -109 -4 -111 -6 -2
-2 15 -107 37 -235 39 -223 42 -262 19 -262 -17 0 -26 35 -66 273 l-39 227
-47 0 c-56 0 -61 -6 -15 -19 21 -6 25 -10 12 -10 -13 -1 -21 -8 -22 -21 -1
-11 2 -20 6 -20 5 0 11 -24 15 -52 5 -46 14 -92 56 -308 5 -25 10 -54 12 -65
2 -11 10 -25 18 -32 25 -19 5 -25 -108 -33 -60 -4 -117 -12 -128 -18 -18 -11
-18 -12 6 -19 l25 -7 -25 -8 c-41 -13 494 0 660 17 260 25 410 48 410 61 0 7
8 15 18 17 12 3 10 5 -8 7 l-25 2 25 9 c16 5 -13 7 -78 3 -58 -3 -101 -1 -98
4 3 4 -2 28 -10 52 -9 27 -13 59 -9 80 3 19 2 30 -3 23 -5 -8 -13 15 -21 60
-7 40 -15 83 -18 97 -4 20 -2 22 6 10 17 -24 14 9 -4 40 -17 29 -21 75 -5 50
6 -9 10 -10 10 -3 0 6 -7 19 -16 27 -9 10 -14 29 -12 48 2 25 -1 34 -15 36
-16 3 -18 -1 -13 -25z"/>
<path d="M23010 18500 c0 -8 16 -107 36 -220 20 -113 36 -215 36 -227 0 -13 5
-20 10 -17 12 8 7 55 -34 284 -17 96 -34 179 -39 185 -6 5 -9 3 -9 -5z"/>
<path d="M23881 18314 c0 -11 3 -14 6 -6 3 7 2 16 -1 19 -3 4 -6 -2 -5 -13z"/>
<path d="M5690 18061 c0 -6 4 -13 10 -16 6 -3 7 1 4 9 -7 18 -14 21 -14 7z"/>
<path d="M5743 18046 c4 -10 1 -13 -7 -10 -25 10 -27 -15 -6 -84 25 -85 26
-99 5 -82 -13 10 -15 9 -15 -8 0 -15 -5 -20 -15 -16 -8 4 -15 2 -15 -3 0 -6
-11 -15 -25 -21 -32 -15 -38 -15 -29 -1 5 8 1 8 -14 0 -11 -6 -22 -14 -24 -18
-5 -13 -101 -58 -116 -55 -8 2 -11 -1 -7 -8 4 -6 1 -11 -6 -9 -26 3 -40 -1
-35 -10 4 -5 -4 -7 -16 -3 -14 3 -19 1 -14 -6 8 -13 -27 -27 -82 -30 -12 -1
-21 -7 -20 -13 2 -6 -3 -14 -11 -17 -8 -3 -11 0 -7 7 4 6 2 11 -3 11 -13 0
-14 -10 -2 -28 6 -11 54 8 213 82 112 53 209 96 216 96 7 0 12 -9 12 -19 0
-20 -7 -24 -275 -148 -77 -36 -142 -67 -144 -69 -4 -4 67 -234 73 -234 1 0 92
43 202 95 109 52 205 93 212 90 8 -3 10 0 6 6 -4 7 0 10 10 7 48 -9 -4 -41
-291 -175 l-131 -61 31 -101 c18 -55 37 -101 44 -101 6 0 103 43 215 95 195
91 231 104 242 87 12 -20 5 -24 -284 -157 -52 -25 -111 -53 -131 -63 l-36 -18
13 -40 c6 -21 12 -31 13 -21 1 13 7 16 24 12 23 -5 56 9 45 20 -3 3 -15 7 -26
8 -11 0 -19 5 -16 9 3 4 16 3 30 -2 34 -13 53 -13 34 1 -12 9 -11 10 7 6 14
-3 35 4 54 19 18 13 39 24 46 24 7 0 30 9 50 20 21 11 43 20 49 20 6 0 22 8
35 18 13 11 37 22 53 26 24 6 27 9 15 17 -10 8 -8 9 9 4 15 -4 22 -2 22 7 0
10 3 9 10 -2 8 -12 10 -12 16 3 3 9 10 14 15 11 5 -3 9 3 9 13 1 38 29 -19 67
-136 21 -65 39 -107 41 -96 2 11 10 25 19 32 13 10 11 23 -12 110 -79 288
-313 923 -341 923 -4 0 -4 -7 -1 -14z m-46 -922 c-3 -3 -12 -4 -19 -1 -8 3 -5
6 6 6 11 1 17 -2 13 -5z"/>
<path d="M5535 17790 c-3 -5 -1 -10 4 -10 6 0 11 5 11 10 0 6 -2 10 -4 10 -3
0 -8 -4 -11 -10z"/>
<path d="M5365 17700 c-3 -6 1 -7 9 -4 18 7 21 14 7 14 -6 0 -13 -4 -16 -10z"/>
<path d="M5940 17070 c-13 -9 -63 -32 -330 -158 -41 -19 -70 -37 -64 -39 7 -2
103 39 214 92 111 52 206 95 211 95 5 0 9 5 9 10 0 12 -20 12 -40 0z"/>
<path d="M14630 16521 c1 -51 82 -637 91 -653 6 -13 25 -38 43 -56 34 -37 144
-107 153 -99 3 4 12 0 20 -8 16 -17 37 -20 28 -5 -3 6 -1 10 6 10 7 0 4 7 -7
15 -19 15 -19 15 1 10 11 -3 5 2 -14 11 -19 8 -54 29 -78 45 -39 27 -43 34
-43 71 0 24 6 45 15 52 13 10 11 40 -15 241 -17 126 -30 233 -30 237 0 10 -40
10 -40 1 -1 -5 12 -110 27 -235 15 -125 24 -231 20 -235 -5 -4 -16 -2 -25 3
-14 9 -23 58 -47 249 -22 166 -28 241 -20 249 7 8 -4 24 -37 57 -27 26 -48 44
-48 40z"/>
<path d="M6222 16178 c-1 -11 -8 -15 -16 -12 -15 6 -21 -7 -32 -71 -9 -52 -33
-95 -51 -88 -7 3 -13 0 -13 -6 0 -6 -7 -11 -15 -11 -8 0 -15 -6 -16 -12 0 -7
-4 -3 -9 10 -14 33 6 40 -275 -93 -66 -31 -132 -62 -147 -68 -30 -12 -40 -28
-29 -45 5 -8 77 21 221 88 117 54 217 97 222 94 4 -3 8 -13 8 -23 0 -13 -23
-29 -77 -54 -43 -19 -141 -65 -217 -102 -79 -38 -147 -64 -158 -62 -14 4 -22
-4 -33 -29 -8 -20 -24 -48 -35 -63 -17 -25 17 -12 268 106 158 75 299 144 314
154 52 37 105 190 95 272 -2 18 -5 24 -5 15z"/>
<path d="M15954 16147 c11 -8 18 -31 21 -72 11 -156 21 -223 35 -240 11 -15
12 -17 1 -10 -11 6 -12 1 -5 -31 5 -21 9 -65 9 -96 0 -45 4 -58 15 -59 10 0
11 -2 3 -6 -19 -7 -16 -23 5 -25 9 -1 -45 -5 -121 -8 l-137 -5 24 -28 25 -29
288 -1 c286 -2 481 5 662 24 104 10 117 15 101 34 -8 10 -7 14 7 18 10 3 -4 6
-32 7 -141 5 -128 1 -133 40 -2 19 -8 39 -13 45 -13 13 -11 28 3 19 8 -5 9 -2
5 10 -4 10 -7 25 -8 34 0 14 -2 13 -10 -3 -6 -13 -7 5 -4 55 3 54 2 68 -5 50
l-10 -25 4 25 c3 14 8 35 11 48 5 16 4 22 -5 20 -17 -4 -30 51 -29 117 1 55
-9 95 -22 95 -12 0 -12 -2 16 -218 29 -222 30 -248 11 -255 -21 -8 -25 9 -52
223 -13 107 -27 207 -30 223 l-6 27 -120 0 -121 0 7 -57 c3 -32 17 -139 30
-238 23 -172 22 -215 -5 -188 -8 8 -67 416 -69 476 0 4 -49 7 -110 7 -108 0
-110 0 -109 -22 0 -13 13 -120 28 -238 23 -175 26 -218 16 -229 -23 -24 -32
-4 -44 96 -7 54 -19 149 -27 210 -8 62 -16 130 -17 151 l-1 38 -50 2 c-41 1
-46 -1 -32 -11z m73 -384 c-3 -10 -5 -4 -5 12 0 17 2 24 5 18 2 -7 2 -21 0
-30z"/>
<path d="M16660 16139 c0 -5 5 -7 10 -4 6 3 10 8 10 11 0 2 -4 4 -10 4 -5 0
-10 -5 -10 -11z"/>
<path d="M15826 16098 c7 -54 54 -428 54 -435 0 -4 4 -3 9 3 6 5 0 83 -15 204
-30 242 -33 260 -44 260 -5 0 -7 -15 -4 -32z"/>
<path d="M16672 15999 c2 -6 8 -10 13 -10 5 0 11 4 13 10 2 6 -4 11 -13 11 -9
0 -15 -5 -13 -11z"/>
<path d="M8775 14603 c19 -374 32 -508 49 -541 24 -46 84 -102 145 -134 62
-34 74 -35 66 -5 -5 17 -4 18 4 7 5 -8 13 -12 16 -8 4 3 -17 22 -47 42 -89 59
-105 73 -91 87 9 9 8 17 -3 34 -10 16 -12 25 -5 30 6 3 11 1 11 -6 0 -8 5 -8
16 2 15 12 16 32 9 174 -14 294 -17 316 -45 334 -23 15 -24 15 -12 -1 7 -9 9
-19 5 -21 -5 -3 -6 -52 -2 -109 22 -342 22 -358 0 -358 -27 0 -28 8 -41 220
-14 244 -15 281 -2 289 6 4 -7 25 -35 54 l-45 48 7 -138z"/>
<path d="M10053 14284 c20 -6 22 -20 5 -27 -7 -3 -2 -6 12 -7 14 -1 19 -4 12
-7 -6 -2 -10 -9 -6 -14 3 -5 5 -54 5 -109 -1 -109 8 -156 20 -105 4 17 4 1 1
-35 -12 -112 -5 -221 15 -237 16 -13 1 -14 -117 -9 -90 4 -130 3 -120 -4 10
-6 11 -10 3 -10 -8 0 -6 -7 5 -18 31 -31 290 -53 689 -59 335 -5 413 -2 382
18 -9 6 -10 9 -2 9 7 0 10 7 7 15 -5 11 -23 15 -73 16 -66 1 -138 15 -96 19
11 1 14 4 8 7 -7 2 -13 9 -13 14 0 6 5 7 12 3 7 -5 8 -3 4 5 -5 7 -14 10 -21
8 -9 -4 -10 5 -3 41 4 26 5 58 0 72 -4 14 -8 64 -8 112 1 49 -2 88 -6 88 -10
0 -9 73 1 128 8 40 7 42 -16 42 -13 0 -22 -3 -20 -7 3 -5 10 -108 17 -231 9
-165 9 -227 1 -235 -24 -24 -33 17 -46 238 -8 125 -16 230 -19 232 -6 6 -230
22 -235 17 -3 -2 1 -95 7 -207 16 -262 15 -277 -2 -277 -17 0 -22 34 -31 190
-8 155 -17 295 -20 297 -3 5 -210 21 -214 17 -2 -2 2 -109 9 -237 7 -129 10
-243 6 -252 -6 -16 -8 -17 -21 -4 -12 11 -19 72 -30 254 -8 131 -17 240 -19
242 -2 2 -26 6 -52 8 -27 2 -41 1 -31 -1z m44 -226 c-3 -8 -6 -5 -6 6 -1 11 2
17 5 13 3 -3 4 -12 1 -19z m20 -220 c-3 -8 -6 -5 -6 6 -1 11 2 17 5 13 3 -3 4
-12 1 -19z"/>
<path d="M9935 14180 c3 -58 10 -163 15 -233 5 -71 6 -135 3 -143 -3 -8 -1
-14 5 -14 5 0 12 8 15 19 8 32 -22 454 -34 466 -8 7 -9 -19 -4 -95z"/>
<path d="M10772 14125 c0 -16 2 -22 5 -12 2 9 2 23 0 30 -3 6 -5 -1 -5 -18z"/>
<path d="M10791 13894 c0 -11 3 -14 6 -6 3 7 2 16 -1 19 -3 4 -6 -2 -5 -13z"/>
<path d="M16205 13110 c-2 -4 38 -99 90 -213 86 -185 102 -237 75 -237 -13 0
-26 22 -75 130 -26 58 -63 139 -82 180 -19 41 -39 85 -44 98 -5 12 -14 22 -21
22 -33 0 -218 -65 -218 -76 0 -7 18 -50 39 -96 99 -212 150 -331 145 -339 -13
-22 -31 -3 -61 64 -57 128 -165 362 -169 366 -7 7 -204 -60 -204 -69 0 -5 43
-103 95 -217 52 -115 95 -216 95 -225 0 -21 -23 -24 -37 -5 -12 15 -190 407
-195 427 -3 13 -11 13 -68 -3 -47 -12 -55 -16 -28 -14 21 2 40 -2 42 -8 3 -6
9 -4 15 5 6 9 11 10 11 3 0 -6 3 -20 6 -30 5 -15 4 -15 -5 -3 -8 11 -13 12
-22 3 -9 -9 -7 -23 10 -59 13 -26 29 -53 37 -61 8 -8 14 -27 14 -43 0 -16 8
-37 18 -47 10 -10 24 -32 31 -50 7 -17 19 -34 27 -37 8 -3 14 -18 14 -34 0
-16 9 -41 21 -56 14 -18 16 -26 7 -26 -11 0 -11 -2 0 -9 8 -4 13 -12 12 -17
-1 -4 6 -11 15 -14 14 -5 -176 -80 -203 -80 -14 0 -3 -38 13 -44 45 -17 619
169 929 301 91 40 105 48 86 55 -18 7 -20 11 -11 22 9 11 -11 8 -76 -10 -104
-28 -93 -27 -93 -9 0 8 -7 15 -16 15 -8 0 -12 5 -9 10 3 6 0 17 -9 25 -8 9
-13 29 -12 50 2 19 -1 32 -5 29 -5 -3 -9 0 -9 6 0 6 -5 8 -11 4 -7 -4 -6 2 2
17 12 23 11 23 -6 9 -17 -14 -17 -14 -7 7 17 31 14 41 -5 18 -13 -17 -15 -17
-10 -2 4 11 1 20 -7 23 -12 4 -21 25 -31 64 0 3 -6 15 -13 27 -6 12 -9 30 -6
40 5 15 4 15 -5 3 -8 -12 -12 -9 -17 17 -3 18 -12 37 -20 44 -7 6 -10 18 -7
26 5 12 3 14 -8 8 -11 -7 -12 -6 -2 6 10 13 10 16 -3 16 -8 0 -17 -3 -19 -7z
m-585 -295 c0 -5 -5 -3 -10 5 -5 8 -10 20 -10 25 0 6 5 3 10 -5 5 -8 10 -19
10 -25z"/>
<path d="M33265 13095 c4 -19 41 -144 50 -173 3 -7 -1 -12 -8 -11 -6 1 -21 1
-32 0 -17 -1 -18 -3 -5 -11 12 -8 11 -10 -7 -10 -12 0 -25 -4 -28 -10 -3 -5
-15 -10 -26 -10 -13 0 -18 -4 -13 -12 5 -7 2 -9 -9 -5 -9 3 -17 1 -19 -4 -2
-7 -13 -7 -31 0 -16 6 -26 7 -23 2 4 -5 0 -12 -6 -15 -7 -3 1 -3 17 -1 l30 5
-30 -14 c-16 -8 -39 -13 -50 -10 -14 4 -16 3 -7 -4 10 -7 5 -13 -20 -23 -18
-7 -39 -12 -47 -11 -7 2 -10 -1 -6 -8 4 -7 -2 -9 -19 -6 -15 3 -24 1 -21 -4 8
-12 -53 -43 -67 -34 -7 5 -8 3 -3 -5 5 -9 -1 -11 -24 -8 -18 3 -31 1 -31 -5 0
-6 7 -7 16 -4 14 5 15 4 4 -9 -22 -26 -8 -24 60 9 329 159 392 183 376 139 -3
-8 -6 -17 -6 -19 0 -2 -4 -4 -9 -4 -5 0 -63 -25 -128 -56 -65 -31 -156 -74
-202 -95 -53 -25 -82 -43 -79 -51 3 -7 20 -58 38 -113 17 -55 33 -101 35 -103
3 -3 60 22 274 124 141 67 181 78 181 52 0 -5 -48 -32 -107 -60 -60 -28 -155
-72 -212 -99 -57 -27 -107 -49 -112 -49 -14 0 -11 -20 21 -122 l30 -97 43 18
c23 10 120 55 216 100 95 44 179 81 187 81 20 0 28 -21 13 -34 -8 -7 -54 -31
-104 -53 -49 -23 -142 -66 -205 -96 -63 -29 -120 -56 -126 -58 -8 -3 -5 -20 7
-54 11 -33 18 -42 18 -27 1 13 5 20 11 17 6 -3 10 1 10 9 0 22 20 20 21 -1 0
-15 2 -15 8 2 5 12 4 23 -3 28 -7 6 -4 7 6 3 20 -6 106 21 129 40 8 8 21 14
27 14 18 0 124 58 149 82 12 12 20 25 17 29 -3 5 2 6 10 3 9 -3 13 -10 10 -15
-8 -14 40 -11 58 4 9 6 18 21 20 32 5 25 39 -47 68 -146 21 -68 47 -108 35
-52 -5 23 -4 25 5 11 6 -10 16 -18 22 -18 9 0 9 3 0 12 -14 14 -16 32 -3 23
12 -7 -12 82 -81 305 -53 175 -111 333 -198 543 -49 120 -54 128 -76 123 -14
-4 -24 -2 -24 4 0 6 5 8 10 5 6 -3 10 -1 10 5 0 7 -6 10 -14 7 -8 -3 -17 -1
-20 6 -3 7 -4 3 -1 -8z m240 -844 c-3 -6 -14 -11 -23 -11 -15 1 -15 2 2 15 21
16 32 13 21 -4z"/>
<path d="M25922 13068 c-12 -6 -21 -14 -20 -18 2 -4 37 -45 79 -91 196 -217
231 -261 216 -276 -16 -16 -20 -13 -188 177 -46 52 -98 111 -116 130 l-32 34
-95 -64 c-53 -36 -96 -69 -96 -75 0 -5 70 -88 154 -184 136 -154 168 -201 136
-201 -5 0 -77 78 -160 173 -84 94 -158 176 -164 181 -8 6 -42 -11 -99 -49 -48
-32 -87 -61 -87 -64 0 -3 70 -85 155 -181 145 -164 176 -210 140 -210 -8 0
-88 83 -179 184 l-164 184 -36 -24 c-39 -27 -49 -42 -16 -24 12 6 20 7 20 1 0
-5 -6 -12 -12 -14 -8 -3 -6 -6 5 -6 9 -1 17 -6 17 -12 0 -8 6 -7 16 2 15 12
16 11 10 -8 -5 -16 -1 -25 16 -37 21 -15 23 -15 29 1 5 15 6 15 12 0 3 -9 2
-17 -2 -17 -5 0 -11 -6 -14 -13 -4 -10 2 -13 21 -11 15 2 19 1 10 -2 -24 -7
-23 -21 2 -29 11 -3 23 -17 26 -31 3 -13 10 -24 15 -24 5 0 6 6 3 14 -3 8 0
17 7 22 8 4 10 3 5 -5 -4 -6 0 -24 10 -39 10 -15 19 -33 20 -41 2 -7 8 -19 14
-25 14 -14 32 12 24 34 -4 11 -2 12 6 4 8 -8 9 -18 3 -30 -13 -26 58 -98 78
-80 10 9 11 8 2 -4 -17 -23 0 -44 27 -35 37 12 16 -10 -70 -71 -44 -32 -77
-62 -73 -67 3 -6 1 -7 -6 -3 -14 9 -64 -21 -56 -34 3 -5 12 -7 20 -3 9 3 22 0
30 -7 12 -10 15 -9 15 4 0 10 4 15 9 11 5 -3 12 -1 16 5 4 6 11 8 16 5 5 -4 9
-1 9 4 0 6 6 11 14 11 20 0 336 213 486 328 131 100 263 207 315 256 29 27 29
28 3 11 -29 -18 -34 -13 -29 24 3 16 -3 12 -83 -46 -32 -24 -62 -43 -66 -43
-4 0 -10 9 -13 21 -3 12 -10 18 -15 15 -5 -3 -15 1 -22 9 -10 12 -10 19 1 33
11 14 11 15 -1 5 -21 -19 -28 -16 -25 11 3 20 -1 24 -16 21 -13 -3 -24 4 -31
20 -6 13 -15 22 -19 19 -5 -3 -9 2 -9 11 0 9 4 14 9 10 5 -3 13 0 17 6 4 7 3
9 -4 5 -6 -3 -13 -2 -17 4 -4 6 -10 8 -14 5 -5 -2 -21 7 -37 20 -17 15 -23 25
-15 25 19 0 7 11 -16 14 -10 2 -16 5 -13 8 3 2 -8 17 -25 32 -16 15 -30 31
-30 34 0 4 -4 6 -8 4 -5 -1 -6 8 -2 20 5 18 4 20 -4 8 -10 -13 -15 -8 -12 13
0 4 -4 7 -10 7 -8 0 -8 5 1 15 14 17 13 18 -18 3z m263 -298 c3 -5 1 -10 -4
-10 -6 0 -11 5 -11 10 0 6 2 10 4 10 3 0 8 -4 11 -10z"/>
<path d="M21066 12718 c71 -212 77 -249 42 -236 -7 3 -46 105 -86 227 -69 206
-75 221 -95 216 -12 -3 -64 -14 -115 -24 -51 -10 -95 -21 -97 -23 -3 -3 27
-99 65 -214 71 -211 80 -254 57 -254 -7 0 -42 88 -86 223 -40 122 -77 226 -81
231 -5 4 -53 0 -109 -10 -77 -14 -101 -22 -101 -34 0 -9 32 -110 70 -225 39
-115 70 -217 70 -227 0 -23 -27 -23 -39 0 -20 39 -150 446 -144 455 3 5 -3 7
-13 4 -11 -4 -31 -9 -47 -13 -19 -4 -25 -10 -19 -18 5 -6 19 -38 30 -71 27
-81 42 -114 66 -149 17 -25 18 -29 3 -23 -14 5 -13 -3 8 -60 14 -36 25 -74 25
-84 0 -11 5 -19 11 -19 8 0 9 -11 5 -32 -4 -21 -3 -28 3 -19 5 8 11 9 15 3 3
-6 2 -13 -3 -17 -20 -12 0 -32 27 -28 48 6 -71 -29 -156 -46 -78 -16 -104 -32
-66 -39 11 -3 14 0 9 9 -5 8 -4 10 3 5 18 -11 15 -16 -20 -31 l-33 -14 50 5
c95 10 191 25 345 55 257 50 665 157 680 179 3 4 12 10 20 13 11 4 10 6 -5 6
-16 1 -17 3 -5 11 31 19 -4 23 -78 7 -97 -21 -97 -21 -99 3 -1 11 3 20 8 20 6
0 8 4 4 10 -3 5 -12 7 -21 3 -8 -3 -14 -2 -13 3 4 18 -14 89 -29 112 -8 12
-15 40 -16 62 0 21 -4 34 -8 27 -10 -17 -21 38 -14 71 5 19 4 23 -3 13 -8 -12
-11 -9 -17 15 -4 16 -14 39 -22 51 -8 13 -12 30 -8 38 3 8 1 15 -4 15 -6 0
-10 9 -10 20 0 11 -6 20 -14 20 -11 0 5 -58 60 -222z"/>
<path d="M18962 12910 c3 -8 49 -148 102 -310 105 -317 116 -339 197 -381 49
-25 177 -60 184 -50 9 16 -31 48 -83 65 -38 13 -56 25 -62 42 -5 13 -14 24
-18 24 -14 0 -9 44 7 56 11 9 1 48 -58 224 -39 117 -71 219 -71 225 0 13 -40
28 -49 19 -3 -2 27 -101 67 -218 40 -117 72 -223 72 -235 0 -23 -22 -28 -37
-8 -13 16 -153 437 -153 460 0 9 6 17 12 17 7 0 -5 9 -27 21 -22 12 -51 31
-64 43 -16 14 -22 16 -19 6z"/>
<path d="M14194 12838 c7 -18 54 -121 103 -228 50 -107 103 -223 118 -258 36
-82 85 -125 170 -151 69 -22 104 -25 142 -15 19 5 20 8 8 20 -8 8 -36 18 -62
23 -26 5 -56 13 -66 17 -18 7 -42 50 -38 68 1 5 -5 6 -13 3 -10 -4 -13 -1 -9
9 3 7 9 14 14 14 21 0 4 53 -77 228 -95 210 -108 232 -130 232 -21 0 -17 -11
84 -230 46 -102 88 -197 92 -211 7 -24 6 -25 -17 -21 -26 5 -29 10 -121 212
-11 25 -39 85 -62 135 -23 49 -40 100 -37 111 3 18 -3 24 -33 33 -21 6 -43 18
-50 26 -22 26 -31 16 -16 -17z"/>
<path d="M15440 12843 c1 -21 198 -433 202 -422 2 7 -6 35 -19 61 -13 26 -23
50 -23 53 0 4 -42 96 -117 258 -24 50 -44 73 -43 50z"/>
<path d="M2259 12773 c-14 -3 -10 -21 27 -126 95 -270 109 -316 96 -329 -8 -8
-15 -9 -22 -2 -5 5 -43 106 -85 223 -41 118 -76 216 -78 217 -3 4 -229 -45
-234 -50 -4 -3 67 -208 128 -374 22 -62 24 -92 5 -92 -8 0 -41 80 -91 223 -43
122 -81 225 -84 229 -10 11 -211 -35 -211 -48 0 -6 32 -101 71 -210 74 -205
86 -259 59 -259 -11 0 -40 69 -97 230 -46 127 -84 232 -85 236 -2 3 -23 1 -47
-4 -33 -7 -41 -11 -32 -20 9 -9 14 -8 22 3 8 11 9 7 5 -18 -6 -33 5 -64 30
-90 7 -7 18 -40 25 -73 6 -32 16 -62 22 -66 6 -4 8 5 3 23 -5 24 -4 26 5 11 6
-10 8 -30 5 -44 -5 -16 -3 -22 4 -18 6 3 9 -3 8 -17 -1 -13 11 -58 26 -101 15
-43 25 -84 23 -92 -4 -10 3 -12 26 -9 l32 4 -25 -14 c-14 -8 -69 -25 -122 -37
-53 -13 -94 -27 -92 -31 3 -4 -8 -6 -23 -4 -15 2 -20 1 -10 -1 9 -2 15 -9 12
-14 -4 -5 2 -9 12 -9 15 0 16 -2 3 -10 -17 -11 -21 -12 195 26 270 47 852 204
839 226 -3 4 1 8 8 8 8 1 6 6 -6 15 -20 15 -20 15 0 16 10 0 14 3 7 5 -6 3
-38 -2 -71 -10 -33 -9 -72 -16 -87 -16 -24 0 -26 3 -21 26 4 14 3 23 -2 20
-10 -6 -37 62 -33 87 1 10 -9 36 -24 58 -14 22 -28 54 -32 72 -3 17 -11 38
-17 46 -8 11 -8 15 2 18 6 3 12 9 12 15 0 6 -7 8 -14 5 -10 -4 -13 -1 -10 7 3
8 1 17 -5 20 -6 4 -6 18 -1 36 5 19 5 28 -1 25 -5 -4 -9 -14 -10 -23 0 -14 -2
-13 -8 3 -5 11 -7 23 -4 28 2 4 0 7 -6 7 -14 0 -7 30 10 41 12 7 12 9 -1 8 -8
-1 -22 -3 -31 -6z m131 -348 c0 -5 -5 -3 -10 5 -5 8 -10 20 -10 25 0 6 5 3 10
-5 5 -8 10 -19 10 -25z"/>
<path d="M20210 12760 c0 -13 139 -440 147 -449 2 -2 6 -1 9 2 4 4 -26 105
-66 224 -67 202 -90 259 -90 223z"/>
<path d="M26425 12750 c-3 -5 -1 -10 4 -10 6 0 11 5 11 10 0 6 -2 10 -4 10 -3
0 -8 -4 -11 -10z"/>
<path d="M212 12700 c16 -43 179 -503 193 -546 29 -84 97 -139 211 -168 81
-21 94 -20 94 4 0 14 -11 22 -42 31 -79 21 -119 43 -114 62 2 9 1 17 -4 17
-16 0 -19 44 -3 55 17 12 5 54 -89 310 -16 44 -34 96 -40 117 -7 26 -16 37
-34 41 -13 2 -24 1 -24 -4 0 -4 22 -70 49 -146 103 -288 107 -301 93 -315 -11
-11 -17 -9 -33 11 -10 13 -19 28 -19 35 0 6 -32 99 -70 206 -40 111 -68 204
-66 216 4 16 -2 24 -27 37 -17 9 -43 25 -57 34 -19 14 -23 15 -18 3z"/>
<path d="M1460 12585 c0 -6 23 -75 51 -155 28 -80 63 -180 77 -222 15 -43 30
-78 34 -78 14 0 9 22 -26 120 -19 52 -53 147 -76 210 -37 103 -60 152 -60 125z"/>
<path d="M25296 12523 c33 -37 66 -75 74 -83 47 -50 148 -167 165 -191 21 -30
35 -37 35 -16 0 19 -305 357 -322 357 -6 0 16 -30 48 -67z"/>
<path d="M2350 12554 c0 -10 5 -26 10 -34 8 -11 9 -7 4 15 -8 37 -14 45 -14
19z"/>
<path d="M21150 12555 c0 -8 4 -15 10 -15 5 0 7 7 4 15 -4 8 -8 15 -10 15 -2
0 -4 -7 -4 -15z"/>
<path d="M24040 12233 c0 -3 53 -64 118 -136 64 -73 159 -180 210 -238 116
-132 139 -144 272 -143 66 1 106 6 130 17 19 9 24 14 11 11 -19 -5 -23 -3 -18
10 6 14 -2 15 -68 9 -65 -5 -76 -3 -100 16 -15 11 -25 21 -21 21 4 0 1 6 -6
14 -7 7 -20 11 -28 9 -8 -3 -5 2 8 11 12 10 22 20 22 24 0 4 -21 30 -46 57
-25 28 -95 107 -156 177 -93 106 -115 126 -138 126 -33 -1 -47 18 148 -202
135 -152 159 -191 120 -191 -26 0 -343 358 -333 375 3 5 -7 12 -22 15 -15 3
-45 9 -65 14 -21 4 -38 6 -38 4z"/>
<path d="M14738 12173 c7 -3 16 -2 19 1 4 3 -2 6 -13 5 -11 0 -14 -3 -6 -6z"/>
<path d="M33449 12091 c-41 -20 -135 -63 -207 -96 -72 -33 -132 -65 -132 -72
0 -6 33 5 78 26 42 21 106 51 142 67 147 66 214 101 205 106 -6 3 -44 -11 -86
-31z"/>
<path d="M9095 11432 c-22 -19 -113 -105 -201 -189 -89 -84 -173 -163 -188
-174 -62 -49 -88 -154 -67 -274 12 -67 41 -121 41 -75 0 12 4 18 11 15 10 -7
8 12 -7 97 -7 33 4 71 17 63 5 -4 9 1 9 9 0 9 7 16 15 16 8 0 15 5 15 10 0 6
10 8 23 5 19 -5 43 13 142 107 230 218 225 213 218 236 -6 26 1 32 -225 -183
-70 -66 -133 -120 -140 -120 -7 0 -14 8 -16 18 -3 13 31 52 110 126 62 59 140
133 173 164 38 36 66 56 78 53 14 -3 17 3 17 34 0 21 5 51 10 66 6 15 9 28 8
30 -2 1 -21 -14 -43 -34z"/>
<path d="M28115 11154 c-163 -348 -163 -350 -103 -476 40 -82 77 -134 78 -106
0 9 5 18 11 20 7 2 0 25 -18 58 -33 61 -50 116 -33 105 5 -3 15 5 21 18 6 14
22 30 35 36 14 6 28 21 33 33 5 13 39 86 75 162 108 226 112 235 94 252 -13
13 -26 -9 -116 -198 -95 -201 -123 -243 -137 -205 -3 7 36 103 87 213 114 243
115 244 134 244 12 0 13 4 3 22 -6 12 -14 44 -18 71 l-6 50 -140 -299z"/>
<path d="M33746 11203 c-3 -10 -8 -36 -12 -58 -8 -45 -33 -108 -34 -85 0 12
-2 12 -9 2 -4 -7 -20 -20 -34 -27 -22 -11 -27 -11 -27 0 0 32 -42 19 -242 -75
-167 -77 -214 -103 -216 -119 -2 -12 1 -21 7 -21 6 0 97 41 203 91 199 94 240
107 246 77 2 -13 -12 -25 -55 -44 -32 -15 -92 -42 -133 -62 -41 -19 -113 -52
-160 -74 -49 -23 -95 -38 -107 -35 -17 3 -23 -1 -23 -12 0 -10 -13 -38 -29
-63 l-29 -46 201 95 c111 52 240 111 286 131 47 20 101 53 121 72 43 41 76
120 86 209 6 57 5 61 -14 61 -11 0 -23 -8 -26 -17z"/>
<path d="M2897 11001 c-20 -43 -82 -172 -137 -287 -87 -182 -100 -215 -100
-261 0 -62 19 -116 72 -198 34 -54 44 -58 39 -16 -2 7 3 10 9 6 6 -4 8 -16 5
-28 l-5 -22 11 22 c9 18 8 27 -10 51 -11 17 -29 49 -39 73 -18 42 -18 43 2 75
12 18 30 34 41 36 11 2 28 19 37 38 10 19 56 115 103 212 77 161 84 179 72
201 -13 24 -13 24 -23 3 -6 -11 -52 -109 -103 -216 -50 -107 -97 -198 -104
-202 -7 -4 -18 -1 -25 6 -10 10 -1 36 49 142 34 71 81 171 105 222 29 60 49
92 60 92 11 0 14 5 9 17 -3 10 -11 39 -16 65 -6 27 -12 48 -13 48 -1 0 -19
-35 -39 -79z"/>
<path d="M21746 10874 c-3 -16 -13 -92 -21 -169 -9 -77 -22 -194 -30 -260 -28
-224 -18 -262 91 -364 63 -59 125 -103 97 -69 -7 8 -10 18 -6 22 4 4 -1 4 -12
1 -17 -5 -17 -4 1 6 20 10 19 14 -39 70 -45 44 -58 62 -50 70 6 6 9 18 6 25
-3 8 1 14 8 14 10 0 10 3 1 12 -16 16 -15 29 1 23 6 -3 17 -1 23 3 6 4 21 93
34 202 12 107 25 211 29 230 7 30 4 38 -16 53 -12 10 -23 13 -23 7 0 -24 -51
-447 -56 -462 -6 -20 -13 -22 -33 -9 -11 7 -9 47 13 242 15 129 29 240 31 247
2 6 12 12 21 12 12 0 10 7 -12 33 -15 17 -33 45 -39 61 l-13 29 -6 -29z"/>
<path d="M15536 10578 c3 -172 10 -329 15 -349 5 -19 25 -54 45 -77 35 -42
114 -102 137 -106 7 -1 17 -5 24 -9 6 -4 14 -3 18 3 3 5 2 10 -3 10 -6 0 -9 6
-8 13 0 7 -23 33 -53 58 -52 42 -55 47 -55 92 -1 32 3 46 11 43 14 -6 37 20
29 32 -3 5 -6 108 -6 230 -1 218 -2 221 -24 236 l-23 14 5 -249 c5 -247 4
-249 -16 -249 -12 0 -23 4 -26 8 -10 16 -9 494 1 500 6 4 -8 29 -34 60 l-43
53 6 -313z"/>
<path d="M12565 10353 c-94 -136 -178 -261 -187 -278 -24 -43 -23 -140 3 -220
13 -37 26 -62 32 -58 6 3 7 1 3 -5 -4 -6 -2 -21 5 -33 9 -17 13 -19 20 -8 5 8
9 19 9 24 0 6 -5 3 -10 -5 -6 -9 -10 -10 -10 -3 0 20 18 24 29 6 17 -30 12
-11 -14 52 -25 60 -32 115 -16 115 9 0 24 38 22 53 -1 5 11 6 26 3 26 -6 32
-1 90 86 34 51 94 138 132 193 68 96 82 125 61 125 -5 0 -7 8 -3 18 9 27 -54
-59 -162 -218 -54 -80 -106 -155 -115 -167 l-17 -22 -13 23 c-11 21 -4 34 80
157 51 74 113 165 138 202 35 52 50 67 64 63 15 -3 18 0 12 17 -4 12 -7 45 -7
74 0 29 0 53 -1 53 -1 0 -78 -111 -171 -247z"/>
<path d="M29023 10422 c-49 -107 -103 -222 -140 -299 -22 -46 -35 -83 -29 -83
6 0 25 30 43 68 122 256 163 345 163 353 0 22 -17 5 -37 -39z"/>
<path d="M29169 10413 c-1 -5 -1 -15 0 -24 1 -9 -5 -22 -14 -29 -8 -7 -15 -18
-15 -24 0 -6 -9 -28 -20 -49 -11 -20 -20 -43 -20 -51 0 -8 -6 -21 -13 -28 -27
-27 -39 -61 -34 -97 3 -20 3 -28 0 -18 -8 30 -25 14 -40 -36 -8 -26 -17 -45
-22 -43 -11 7 -33 -43 -25 -56 4 -6 0 -15 -7 -20 -11 -7 -11 -11 -1 -15 19 -8
14 -23 -5 -16 -10 4 -46 24 -80 44 -33 21 -79 47 -101 58 l-39 20 2 -27 c3
-42 4 -44 20 -39 8 4 17 1 21 -5 4 -7 3 -8 -4 -4 -7 4 -12 5 -12 2 0 -15 381
-258 566 -362 257 -144 368 -191 338 -142 -5 8 0 9 14 6 35 -10 26 -1 -45 41
-75 43 -123 81 -104 81 7 0 10 4 6 9 -3 6 7 8 22 6 16 -2 22 -2 16 1 -7 3 -13
10 -13 15 0 6 5 7 12 3 7 -4 8 -3 4 5 -6 9 -11 9 -23 -1 -14 -12 -15 -11 -3 8
7 12 20 20 29 19 9 -1 10 0 4 2 -7 3 -13 9 -13 14 0 6 5 7 12 3 8 -5 9 -2 5
10 -4 9 -3 15 1 12 4 -2 14 -1 22 5 12 7 11 9 -4 9 -18 0 -18 1 -2 19 10 11
15 24 11 30 -3 7 0 8 9 5 11 -4 13 0 9 17 -4 15 -3 20 5 15 8 -5 12 0 12 14 0
23 18 59 38 75 7 5 13 24 15 42 1 17 6 29 10 26 5 -3 6 -12 2 -20 -4 -13 -3
-13 9 -4 8 6 12 20 9 30 -3 10 0 22 6 25 6 4 11 14 11 22 0 8 -4 12 -10 9 -5
-3 -7 0 -4 8 3 9 14 13 27 10 22 -4 22 -4 3 11 -11 9 -23 16 -26 16 -3 0 -30
-53 -60 -117 -130 -286 -159 -334 -176 -290 -2 7 27 78 65 158 38 80 83 175
99 211 l30 67 -94 61 c-89 57 -124 71 -124 51 0 -8 -102 -228 -163 -350 -32
-65 -57 -89 -57 -55 0 10 46 115 101 233 56 118 97 217 93 218 -5 2 -47 28
-93 58 -46 31 -85 54 -87 52 -2 -1 -49 -99 -104 -217 -56 -118 -106 -218 -112
-222 -15 -9 -28 -1 -28 17 0 14 56 138 151 334 l56 116 -31 23 c-33 24 -35 25
-37 15z"/>
<path d="M16805 10370 c3 -5 14 -10 23 -11 11 -1 8 -4 -8 -9 -14 -4 -20 -8
-13 -9 8 -1 12 -54 12 -193 1 -215 8 -309 25 -320 16 -11 -46 -10 -147 3 -91
11 -118 7 -76 -11 23 -10 23 -10 2 -6 -13 2 -23 0 -23 -5 0 -5 6 -9 13 -9 8 0
27 -6 43 -14 89 -43 1006 -113 1028 -78 12 19 -26 52 -60 52 -54 0 -126 13
-114 20 13 8 18 79 6 98 -4 6 -4 17 0 24 5 7 3 8 -6 3 -12 -8 -11 49 4 190 5
40 5 40 -3 5 l-8 -35 -2 36 c0 19 5 41 12 48 10 11 10 13 0 7 -10 -5 -13 7
-13 48 0 34 5 56 13 59 8 4 7 6 -3 7 -10 0 -6 5 9 14 l24 13 -32 5 -33 5 3
-233 c2 -129 0 -236 -4 -240 -3 -4 -13 -4 -22 -1 -13 5 -15 33 -15 180 0 96
-3 201 -6 234 l-7 60 -93 12 c-51 6 -105 11 -120 11 l-27 0 6 -232 c4 -132 3
-239 -2 -247 -20 -32 -31 3 -31 102 0 56 -3 166 -7 243 l-6 142 -46 6 c-25 3
-75 8 -110 12 l-64 7 7 -239 c6 -244 2 -280 -28 -255 -12 10 -15 49 -16 219
-3 288 -2 276 -25 284 -32 10 -67 9 -60 -2z"/>
<path d="M16674 10333 c3 -21 6 -129 6 -241 0 -133 3 -201 10 -197 6 4 10 80
10 194 0 200 -7 281 -23 281 -6 0 -7 -15 -3 -37z"/>
<path d="M9443 10202 c-195 -184 -273 -262 -261 -262 19 1 351 318 346 331 -2
4 -40 -27 -85 -69z"/>
<path d="M22810 10221 c0 -5 -7 -65 -15 -133 -8 -67 -20 -163 -26 -213 -6 -49
-13 -99 -16 -110 -5 -18 -3 -18 10 -5 10 10 21 76 36 210 12 107 25 210 28
228 3 20 1 32 -6 32 -6 0 -11 -4 -11 -9z"/>
<path d="M22955 10212 c-6 -4 -11 -20 -12 -37 -8 -128 -26 -293 -33 -307 -6
-10 -10 -58 -10 -108 0 -54 -4 -90 -10 -90 -6 0 -62 11 -126 25 -120 26 -159
31 -111 13 26 -9 38 -28 17 -28 -5 0 -10 -5 -10 -11 0 -5 5 -7 11 -3 6 3 14 2
18 -3 18 -29 531 -153 836 -202 173 -28 223 -33 205 -21 -13 9 -13 10 0 11 10
0 8 3 -5 9 -19 8 -19 9 -1 9 36 2 5 16 -77 36 l-82 20 1 33 c1 17 2 56 3 85 1
34 4 47 10 38 6 -9 8 11 5 50 -2 39 0 59 5 50 10 -16 22 76 25 188 1 66 2 70
21 65 20 -5 20 -5 1 10 -39 31 -35 42 -66 -229 -11 -99 -23 -190 -25 -202 -5
-23 -29 -31 -39 -15 -3 5 7 111 21 236 14 124 24 229 21 231 -3 3 -55 18 -117
34 -77 20 -114 25 -116 17 -2 -6 -6 -38 -10 -71 -20 -195 -45 -386 -50 -395
-13 -21 -25 -8 -25 28 0 20 11 131 25 246 13 116 23 211 22 212 -6 7 -202 52
-208 49 -3 -3 -11 -46 -17 -97 -6 -51 -19 -156 -28 -233 -9 -77 -21 -146 -27
-153 -16 -21 -36 5 -31 41 15 115 54 460 52 462 -10 8 -55 13 -63 7z m15 -71
c0 -6 -4 -13 -10 -16 -5 -3 -10 1 -10 9 0 9 5 16 10 16 6 0 10 -4 10 -9z m627
-298 c-3 -10 -5 -4 -5 12 0 17 2 24 5 18 2 -7 2 -21 0 -30z"/>
<path d="M9607 10166 c-3 -8 3 -21 15 -28 l20 -14 -21 0 c-11 0 -21 4 -21 9 0
5 -15 -3 -32 -17 -18 -15 -37 -30 -43 -34 -5 -4 -18 -11 -28 -15 -10 -4 -16
-11 -13 -16 8 -12 -19 -33 -29 -23 -5 4 -5 1 -1 -6 5 -8 -3 -18 -21 -29 -39
-22 -74 -77 -59 -93 7 -8 4 -8 -11 1 -18 11 -26 11 -47 0 -13 -8 -22 -19 -20
-26 3 -7 -9 -23 -25 -35 -17 -12 -31 -28 -31 -36 0 -8 -4 -14 -9 -14 -7 0 -84
91 -134 160 -10 14 -15 19 -12 13 3 -7 1 -13 -4 -13 -6 0 -11 4 -11 9 0 5 -10
11 -21 14 -21 6 -21 5 2 -19 19 -20 20 -24 6 -18 -58 22 332 -504 577 -779 53
-60 110 -100 99 -69 -4 10 -2 13 5 8 18 -11 3 24 -28 64 -15 19 -32 45 -38 57
-7 12 -19 28 -27 36 -13 13 -13 16 1 21 8 3 12 2 9 -4 -9 -15 11 -12 24 4 9
11 9 15 -1 20 -7 3 -3 3 9 1 12 -3 24 -1 28 5 3 5 1 10 -5 10 -6 0 -9 4 -5 10
3 5 13 6 22 3 12 -5 15 -2 10 10 -3 9 -1 19 5 23 7 5 8 2 3 -6 -6 -10 -4 -11
6 -4 8 5 17 9 22 9 4 0 7 3 7 8 0 4 0 10 0 13 0 4 -7 1 -15 -6 -26 -22 -16 -5
12 19 18 17 24 19 20 7 -4 -9 -2 -16 3 -16 6 0 10 3 11 8 5 47 24 68 47 50 10
-9 17 -7 28 5 8 9 9 12 2 7 -17 -14 -27 -12 -24 5 3 21 26 44 26 26 0 -11 3
-11 15 -1 9 7 14 19 11 26 -5 14 21 40 31 30 3 -3 1 -6 -5 -6 -7 0 -12 -5 -12
-11 0 -8 4 -8 14 1 8 6 12 19 9 27 -5 12 -2 15 10 10 12 -4 14 -2 10 10 -5 12
-3 14 7 8 8 -5 11 -4 7 1 -3 6 3 16 15 23 11 7 17 8 14 2 -4 -5 2 -9 13 -8 17
1 18 3 3 24 l-15 24 -81 -78 c-45 -42 -120 -114 -167 -160 -47 -46 -94 -83
-103 -83 -42 0 -6 46 153 195 l169 159 -55 75 c-31 42 -65 86 -76 99 l-21 22
-41 -40 c-23 -22 -45 -37 -50 -33 -4 5 -5 3 -2 -4 7 -11 -244 -253 -263 -253
-27 0 -2 35 83 117 50 49 129 125 174 169 l82 79 -62 87 c-34 48 -65 87 -69
85 -3 -1 -83 -75 -177 -164 -95 -90 -178 -163 -186 -163 -36 0 -24 27 41 89
274 260 294 282 284 301 -6 11 -16 18 -23 16 -6 -1 -9 -1 -4 1 10 6 9 23 -2
23 -5 0 -11 -6 -14 -14z m303 -666 c0 -5 -5 -10 -11 -10 -5 0 -7 5 -4 10 3 6
8 10 11 10 2 0 4 -4 4 -10z"/>
<path d="M3653 9950 c-44 -91 -92 -189 -107 -219 -30 -62 -29 -61 -16 -61 5 0
30 42 54 93 24 50 69 146 100 211 31 66 55 124 52 130 -2 6 -40 -63 -83 -154z"/>
<path d="M3846 10055 c3 -8 10 -15 15 -15 5 0 9 -4 9 -10 0 -5 -7 -7 -15 -4
-9 4 -15 0 -16 -10 -2 -26 -4 -30 -23 -59 -11 -15 -19 -42 -19 -60 0 -18 -2
-24 -4 -14 -7 27 -21 20 -29 -15 -4 -18 -8 -36 -8 -40 -1 -3 -4 -10 -8 -14 -5
-4 -8 -16 -8 -26 0 -11 -4 -16 -10 -13 -5 3 -10 -1 -10 -10 0 -9 -9 -30 -21
-46 -11 -16 -25 -45 -30 -64 -6 -19 -14 -35 -19 -35 -15 0 -12 -37 3 -44 6 -3
2 -3 -10 0 -13 3 -23 1 -23 -5 0 -6 5 -11 10 -11 6 0 10 -4 10 -9 0 -10 -86
33 -145 74 -25 16 -45 23 -58 19 -13 -4 -17 -2 -13 5 4 6 3 11 -1 11 -5 0 -14
-9 -21 -21 -8 -12 -9 -18 -3 -14 6 3 11 2 11 -4 0 -13 276 -202 448 -306 166
-100 413 -234 441 -240 12 -2 26 -7 31 -10 5 -3 18 -2 27 4 15 8 14 10 -12 17
-24 6 -26 8 -11 14 15 5 4 15 -53 49 -72 44 -83 59 -56 81 8 7 15 23 15 36 0
12 4 26 10 29 6 4 7 -1 3 -12 -3 -10 -3 -15 1 -12 4 4 9 21 11 37 5 36 34 97
42 88 3 -3 0 -12 -6 -20 -10 -11 -10 -19 -1 -33 10 -16 10 -16 5 4 -3 12 -1
24 5 28 6 4 8 15 5 24 -3 10 1 24 10 31 8 7 15 17 15 23 0 6 -7 2 -16 -9 -9
-10 -7 -4 4 16 54 95 62 112 56 122 -4 7 -2 8 4 4 7 -4 12 -2 12 4 0 6 4 9 9
6 4 -3 6 7 4 22 -4 22 -2 24 7 12 9 -12 10 -11 5 8 -5 16 -2 22 10 22 15 0 15
1 0 16 -9 9 -17 15 -19 13 -1 -2 -47 -97 -101 -211 -75 -159 -103 -208 -117
-208 -10 0 -18 6 -18 14 0 12 99 225 176 380 14 27 23 50 22 51 -68 49 -201
126 -208 119 -5 -5 -50 -97 -101 -204 -96 -205 -112 -231 -129 -214 -10 10 22
81 174 393 14 30 23 58 19 62 -20 17 -167 109 -175 109 -5 0 -28 -42 -52 -92
-120 -256 -159 -334 -169 -340 -7 -4 -17 -1 -23 7 -9 12 0 39 41 122 29 60 74
155 101 213 27 58 53 108 58 112 6 4 8 8 6 10 -3 2 -22 16 -42 31 -24 18 -35
22 -32 12z m-69 -217 c-3 -8 -6 -5 -6 6 -1 11 2 17 5 13 3 -3 4 -12 1 -19z"/>
<path d="M29661 9814 c0 -11 3 -14 6 -6 3 7 2 16 -1 19 -3 4 -6 -2 -5 -13z"/>
<path d="M16618 9783 c7 -3 16 -2 19 1 4 3 -2 6 -13 5 -11 0 -14 -3 -6 -6z"/>
<path d="M4356 9493 c-6 -14 -5 -15 5 -6 7 7 10 15 7 18 -3 3 -9 -2 -12 -12z"/>
<path d="M13305 9425 c-217 -312 -221 -319 -204 -313 7 2 59 71 115 154 57 82
107 154 111 159 23 28 44 67 41 76 -2 6 -30 -29 -63 -76z"/>
<path d="M13464 9440 c21 -32 21 -46 -1 -29 -15 12 -16 12 -10 -3 3 -10 1 -20
-5 -24 -7 -4 -6 -9 3 -15 9 -5 5 -12 -18 -25 -32 -19 -55 -65 -46 -92 4 -13 2
-12 -11 3 -10 11 -15 15 -12 8 4 -6 -11 -29 -31 -51 -44 -46 -58 -65 -79 -111
-8 -19 -22 -40 -30 -49 -9 -8 -12 -22 -8 -36 5 -16 4 -18 -6 -9 -10 9 -16 8
-27 -3 -8 -7 -11 -18 -8 -24 10 -17 -12 -11 -26 7 -8 9 -40 35 -71 59 -31 23
-54 45 -50 49 4 5 2 5 -5 2 -6 -4 -13 -1 -16 5 -2 7 -8 10 -12 5 -5 -4 2 -19
16 -34 13 -15 17 -22 8 -15 -15 11 -29 7 -29 -9 0 -10 277 -264 401 -367 53
-44 165 -132 249 -196 144 -109 153 -114 174 -100 13 8 26 11 31 7 4 -5 5 -3
1 4 -4 7 -14 9 -23 6 -11 -4 -14 -3 -9 6 5 8 -7 26 -35 49 -83 71 -93 84 -75
94 9 5 14 13 11 17 -7 12 22 34 34 26 6 -3 9 0 6 7 -6 17 32 81 44 73 5 -3 7
5 3 17 -3 14 -2 19 6 14 7 -4 12 -2 12 3 0 23 2 27 19 46 10 11 24 29 30 40 9
15 11 15 7 3 -3 -10 0 -18 5 -18 6 0 9 9 6 20 -5 21 15 45 27 32 4 -4 7 -2 6
3 -8 37 29 93 51 79 7 -4 9 1 5 14 -4 12 -2 23 5 28 7 4 9 3 6 -2 -3 -5 3 -10
13 -10 18 0 18 2 3 18 -9 10 -21 17 -25 16 -5 -2 -66 -86 -136 -188 -70 -101
-133 -185 -139 -188 -7 -2 -16 3 -19 12 -4 9 43 87 125 208 l132 193 -83 77
c-46 42 -88 77 -94 78 -6 0 -69 -85 -140 -190 -71 -104 -135 -191 -142 -194
-7 -3 -15 1 -18 8 -5 14 24 60 199 310 l68 99 -78 73 c-43 40 -81 73 -84 74
-3 0 -67 -90 -143 -200 -129 -188 -166 -228 -166 -180 0 20 12 39 183 284 l90
128 -43 42 c-24 23 -36 30 -26 16z m-142 -283 c-12 -13 -22 -29 -22 -37 0 -7
-3 -11 -6 -7 -10 10 20 67 35 67 10 0 8 -7 -7 -23z m5 -39 c-3 -8 -6 -5 -6 6
-1 11 2 17 5 13 3 -3 4 -12 1 -19z m483 -722 c0 -3 -4 -8 -10 -11 -5 -3 -10
-1 -10 4 0 6 5 11 10 11 6 0 10 -2 10 -4z"/>
<path d="M9831 9426 c-9 -11 -9 -16 1 -22 7 -4 10 -4 6 1 -4 4 -3 14 3 22 6 7
9 13 6 13 -2 0 -10 -6 -16 -14z"/>
<path d="M19570 9353 c-40 -43 -141 -148 -224 -234 -164 -168 -176 -188 -176
-290 0 -50 21 -164 32 -175 3 -2 13 -2 22 2 15 6 16 15 11 57 -15 107 -15 117
7 128 11 6 17 17 14 24 -3 10 4 13 30 10 32 -3 41 4 152 118 64 67 138 143
163 169 37 38 45 52 41 73 -4 24 -17 13 -176 -151 -163 -169 -196 -193 -196
-148 0 9 75 94 168 190 123 129 172 174 185 170 12 -3 17 0 14 7 -2 7 -1 37 3
67 4 30 7 56 5 58 -1 1 -35 -33 -75 -75z"/>
<path d="M12967 9126 c-4 -10 -1 -13 8 -9 8 3 12 9 9 14 -7 12 -11 11 -17 -5z"/>
<path d="M12947 9090 c21 -22 36 -31 42 -25 6 6 4 15 -5 23 -11 10 -14 10 -14
1 0 -7 -12 -2 -27 11 -21 18 -19 15 4 -10z"/>
<path d="M13937 8887 c-3 -8 1 -14 8 -14 7 0 11 6 8 14 -3 7 -6 13 -8 13 -2 0
-5 -6 -8 -13z"/>
<path d="M19924 8084 c-87 -92 -161 -171 -163 -176 -7 -20 37 12 74 54 21 24
87 94 147 155 92 96 121 133 105 133 -2 0 -75 -75 -163 -166z"/>
<path d="M25280 7913 c5 -314 6 -330 27 -369 12 -23 42 -58 65 -79 51 -43 147
-100 155 -91 3 3 -2 8 -11 12 -15 6 -15 7 -1 18 14 10 9 17 -36 46 -29 19 -57
38 -63 42 -5 3 -10 21 -11 40 -1 18 -5 44 -9 58 -4 14 -4 20 1 13 6 -8 14 -9
23 -3 13 8 15 49 15 248 l0 239 -25 15 -25 14 5 -231 c3 -128 4 -240 2 -249
-4 -19 -38 -22 -45 -3 -3 7 -6 122 -6 255 -2 219 0 242 15 242 12 0 9 7 -13
28 -16 15 -37 39 -48 55 l-20 27 5 -327z"/>
<path d="M20175 8153 c-5 -10 -7 -24 -6 -30 1 -7 -4 -13 -12 -13 -7 0 -23 -11
-35 -25 -12 -14 -27 -25 -32 -25 -7 0 -7 -7 1 -21 8 -16 8 -24 -1 -33 -8 -8
-9 -6 -4 8 7 18 6 18 -21 0 -25 -17 -26 -19 -9 -31 10 -7 13 -13 8 -13 -6 0
-16 6 -22 12 -10 10 -15 10 -22 -2 -6 -8 -8 -21 -5 -28 3 -7 0 -10 -5 -7 -5 3
-18 -3 -30 -15 -11 -11 -27 -20 -35 -20 -8 0 -17 -11 -21 -25 -3 -14 -10 -25
-14 -25 -4 0 -18 -16 -29 -36 -12 -20 -25 -33 -29 -30 -3 4 0 11 8 16 8 5 11
12 6 17 -4 4 -11 1 -16 -8 -5 -9 -17 -26 -27 -38 l-19 -23 -54 63 c-89 103
-122 136 -111 112 14 -28 14 -54 0 -30 -11 19 -29 23 -29 5 0 -6 3 -9 6 -5 4
3 14 -9 24 -28 10 -19 64 -96 121 -171 195 -258 591 -696 569 -629 l-10 30 20
-25 21 -25 -7 25 c-6 23 -6 24 11 10 11 -8 -9 19 -43 61 -34 41 -62 78 -62 82
0 3 12 18 27 32 15 14 24 25 19 25 -5 0 -1 9 9 20 10 11 23 20 29 20 6 0 0 -9
-14 -20 -14 -11 -19 -20 -12 -20 19 0 45 28 37 40 -7 11 84 104 93 95 7 -6 42
35 42 49 0 16 49 74 50 59 0 -7 -4 -13 -10 -13 -5 0 -10 -8 -10 -17 0 -15 2
-14 15 3 8 10 15 28 15 39 1 11 4 14 7 8 2 -7 9 -13 14 -13 6 0 7 4 4 10 -3 5
2 21 11 35 16 25 18 25 42 9 l25 -17 -22 31 -21 31 -156 -162 c-86 -89 -163
-166 -171 -171 -15 -8 -36 10 -30 25 1 4 73 80 160 169 86 89 157 166 157 171
0 5 -33 50 -72 100 l-73 91 -166 -172 c-124 -129 -171 -171 -184 -167 -23 9
-17 16 168 206 l157 163 -61 79 c-34 44 -66 82 -71 86 -6 3 -84 -72 -175 -166
-153 -158 -203 -198 -203 -158 0 7 78 94 174 193 132 135 172 182 164 192 -9
10 -15 9 -32 -5 l-21 -18 19 23 c18 20 18 24 4 38 -14 14 -16 14 -23 -3z m-20
-93 c-3 -5 -12 -10 -18 -10 -7 0 -6 4 3 10 19 12 23 12 15 0z m-35 -10 c0 -5
-2 -10 -4 -10 -3 0 -8 5 -11 10 -3 6 -1 10 4 10 6 0 11 -4 11 -10z m-80 -90
c0 -5 -2 -10 -4 -10 -3 0 -8 5 -11 10 -3 6 -1 10 4 10 6 0 11 -4 11 -10z
m-200 -216 c0 -8 -19 -13 -24 -6 -3 5 1 9 9 9 8 0 15 -2 15 -3z"/>
<path d="M26546 7713 c10 -7 22 -13 27 -13 4 0 1 -7 -7 -16 -14 -13 -16 -51
-16 -255 0 -239 0 -240 23 -250 22 -10 -157 -5 -214 6 -18 3 -29 0 -33 -10 -3
-8 -1 -15 4 -15 6 0 10 5 10 11 0 5 5 7 10 4 6 -4 8 -10 6 -14 -18 -29 64 -47
374 -81 226 -25 732 -50 693 -34 -12 5 -6 34 10 45 5 4 -32 9 -82 13 -81 7
-126 23 -93 34 7 2 11 16 11 30 -2 24 -2 24 -6 5 -2 -13 -9 -23 -15 -23 -6 0
-8 10 -5 23 8 30 8 230 1 355 -5 82 -3 102 8 102 10 0 9 3 -2 10 -8 5 -19 10
-24 10 -5 0 -6 -95 -2 -227 4 -134 3 -234 -3 -242 -5 -8 -16 -11 -25 -8 -14 6
-16 34 -17 219 -1 117 -2 223 -2 236 -1 26 -8 28 -112 37 -38 3 -85 9 -104 12
l-34 6 4 -244 c3 -212 2 -244 -11 -244 -13 0 -16 35 -21 230 -4 127 -7 237 -8
246 -1 13 -19 18 -88 25 -49 5 -97 9 -108 9 -19 0 -20 -7 -20 -245 0 -217 -2
-245 -16 -248 -26 -5 -29 25 -29 277 l0 233 -30 -4 c-16 -3 -30 -2 -30 2 0 3
-9 6 -21 6 -19 0 -19 -1 -3 -13z m25 -378 c-7 -72 -8 -79 -9 -35 -2 52 7 134
14 128 1 -2 -1 -44 -5 -93z m8 -122 c0 -25 -1 -25 -8 -8 -5 11 -7 23 -4 28 8
14 13 7 12 -20z"/>
<path d="M26420 7715 c-2 -5 -2 -13 -1 -17 0 -3 1 -108 1 -232 1 -132 5 -226
11 -226 11 0 11 437 -1 465 -5 11 -9 16 -10 10z"/>
<path d="M20597 7583 c-4 -3 -7 -11 -7 -17 0 -6 5 -5 12 2 6 6 9 14 7 17 -3 3
-9 2 -12 -2z"/>
<path d="M20310 7269 c0 -5 5 -7 10 -4 6 3 10 8 10 11 0 2 -4 4 -10 4 -5 0
-10 -5 -10 -11z"/>
<path d="M26308 7143 c6 -2 18 -2 25 0 6 3 1 5 -13 5 -14 0 -19 -2 -12 -5z"/>
<path d="M36079 7113 c-13 -16 -12 -17 4 -4 9 7 17 15 17 17 0 8 -8 3 -21 -13z"/>
<path d="M36105 7110 c-3 -6 0 -10 7 -10 8 -1 6 -6 -6 -15 -11 -8 -18 -16 -15
-18 34 -24 127 -85 143 -94 18 -11 19 -13 3 -13 -10 0 -16 -4 -13 -9 4 -5 -4
-8 -17 -7 -16 2 -23 -2 -23 -15 0 -12 4 -15 10 -9 18 18 26 10 9 -9 -9 -11
-20 -18 -25 -15 -7 5 -12 -10 -9 -29 1 -5 -5 -20 -13 -35 -7 -15 -22 -44 -32
-64 -10 -20 -21 -35 -26 -32 -4 3 -5 -3 -1 -12 5 -13 3 -15 -7 -9 -10 6 -12 4
-7 -7 3 -9 -1 -26 -10 -38 -12 -18 -17 -19 -25 -9 -6 10 -7 6 -3 -10 6 -18 4
-22 -6 -15 -10 6 -10 3 1 -11 8 -10 10 -16 3 -12 -7 4 -21 -10 -37 -38 -13
-25 -20 -42 -14 -39 6 4 9 1 6 -7 -3 -8 -11 -13 -18 -11 -11 3 -11 0 0 -13 7
-8 16 -13 19 -10 3 4 53 97 111 207 58 111 111 203 118 206 42 14 5 -77 -146
-357 -24 -46 -40 -86 -35 -90 5 -3 50 -34 100 -68 96 -66 95 -66 122 -11 8 15
18 25 22 22 5 -3 7 1 4 8 -5 13 145 311 170 337 12 13 15 12 21 -2 4 -10 -34
-95 -104 -229 l-109 -213 90 -63 c49 -35 91 -62 92 -60 1 2 47 89 100 193 54
105 107 202 117 218 21 29 38 28 38 -2 0 -18 -14 -45 -156 -318 l-63 -121 34
-27 c32 -23 49 -23 25 1 -6 6 -5 15 1 24 9 13 10 13 6 -1 -4 -13 0 -15 21 -10
20 4 22 6 9 9 -12 2 -16 9 -13 19 3 8 6 17 6 19 0 3 4 2 10 -1 11 -7 24 39 17
59 -4 11 -1 13 10 9 13 -5 14 0 9 28 -4 23 -3 27 2 14 8 -18 10 -17 25 10 9
17 24 47 33 68 13 27 20 34 26 25 6 -9 7 -6 3 8 -3 14 2 35 15 55 11 19 25 45
32 59 7 14 17 28 23 32 6 5 3 8 -7 8 -10 0 -18 5 -18 11 0 6 9 9 20 6 17 -4
20 -2 15 14 -6 19 -6 19 30 -1 20 -11 67 -41 105 -66 39 -25 76 -43 82 -41 10
4 10 6 0 6 -7 1 -21 9 -30 18 -16 16 -16 16 1 10 9 -3 17 -2 17 4 0 6 5 7 10
4 6 -4 7 -11 4 -17 -4 -7 -2 -8 4 -4 7 4 12 9 12 11 0 8 -214 168 -345 257
-244 167 -569 356 -580 338z m-94 -563 c-10 -9 -11 -8 -5 6 3 10 9 15 12 12 3
-3 0 -11 -7 -18z"/>
<path d="M36106 6774 c-9 -24 -2 -26 12 -4 7 11 8 20 3 20 -5 0 -12 -7 -15
-16z"/>
<path d="M37036 6501 c-4 -5 -2 -12 3 -15 5 -4 12 -2 15 3 4 5 2 12 -3 15 -5
4 -12 2 -15 -3z"/>
<path d="M36872 6468 c-5 -7 -25 -44 -44 -83 -19 -38 -60 -118 -91 -176 -63
-118 -80 -159 -68 -159 5 0 48 78 96 173 48 94 99 191 112 215 23 38 19 59 -5
30z"/>
<path d="M37619 5924 c-5 -38 -1 -56 23 -107 26 -57 26 -60 11 -105 -20 -58
-19 -58 -38 -42 -10 8 -19 9 -25 4 -5 -5 -45 -81 -90 -169 -45 -88 -93 -179
-106 -201 -21 -36 -23 -45 -13 -68 12 -25 13 -24 61 66 27 51 76 148 111 216
44 88 67 122 80 122 21 0 33 -25 20 -43 -6 -6 -54 -97 -108 -202 -109 -212
-113 -218 -131 -211 -10 4 -11 -1 -3 -22 6 -15 14 -46 17 -70 l7 -42 27 52
c15 29 82 158 149 287 116 224 121 236 120 292 -1 76 -58 218 -82 203 -5 -3
-6 1 -3 9 3 8 -2 20 -11 27 -8 7 -15 9 -16 4z"/>
<path d="M3043 5723 c-13 -2 -23 -6 -23 -8 0 -2 41 -96 90 -209 50 -114 90
-213 90 -221 0 -8 -8 -15 -19 -15 -15 0 -38 44 -112 215 -107 247 -78 225
-234 176 -63 -19 -89 -32 -87 -42 2 -8 44 -106 93 -218 49 -112 86 -207 83
-212 -14 -23 -33 -4 -58 59 -28 66 -157 364 -162 370 -2 2 -50 -8 -108 -23
-85 -23 -103 -31 -99 -44 3 -9 46 -110 95 -224 83 -192 98 -245 65 -235 -15 5
-29 34 -129 268 -44 102 -81 186 -83 188 -2 2 -25 -3 -52 -11 -29 -9 -39 -15
-25 -16 13 -1 22 -7 22 -17 0 -8 5 -12 10 -9 6 4 10 -5 10 -20 0 -17 4 -24 12
-19 6 4 8 3 4 -4 -7 -11 28 -113 51 -149 8 -12 12 -27 8 -33 -3 -5 3 -22 13
-38 11 -15 27 -44 35 -64 9 -21 21 -38 26 -38 6 0 8 -6 5 -14 -3 -7 4 -30 16
-50 20 -37 19 -56 -2 -56 -27 0 -186 -55 -182 -62 3 -5 -7 -6 -23 -3 -27 5
-27 5 -4 -5 14 -6 31 -8 38 -6 23 9 14 -3 -14 -18 -19 -10 -23 -15 -11 -16 9
0 20 5 23 11 4 6 13 8 21 5 15 -6 285 63 444 113 236 74 520 179 520 193 0 5
4 6 10 3 5 -3 19 -1 31 6 l21 11 -20 20 -20 21 -70 -22 c-87 -26 -89 -26 -98
1 -3 12 -19 43 -35 68 -16 26 -30 55 -32 66 -1 10 -7 25 -11 33 -6 9 -5 12 1
8 7 -4 10 3 9 18 -1 23 -2 24 -15 8 -12 -16 -13 -16 -8 7 4 16 0 31 -12 45
-25 28 -52 101 -45 122 5 15 4 15 -5 3 -12 -17 -11 -17 -34 33 -14 32 -15 37
-2 37 8 0 15 5 15 10 0 6 -1 9 -2 9 -2 -1 -13 -4 -25 -6z m-612 -220 c-12 -20
-14 -14 -5 12 4 9 9 14 11 11 3 -2 0 -13 -6 -23z m719 -14 c0 -6 -4 -7 -10 -4
-5 3 -10 11 -10 16 0 6 5 7 10 4 6 -3 10 -11 10 -16z m-646 -194 c5 -22 4 -26
-4 -15 -5 8 -10 24 -10 34 0 26 6 18 14 -19z m936 -51 c0 -2 -9 0 -20 6 -11 6
-20 13 -20 16 0 2 9 0 20 -6 11 -6 20 -13 20 -16z"/>
<path d="M1017 5463 c14 -32 72 -166 129 -297 57 -132 112 -248 121 -259 45
-49 175 -97 263 -97 33 1 34 1 15 16 -11 8 -19 18 -17 21 1 4 -9 8 -23 10 -15
2 -47 12 -72 21 -37 14 -48 23 -55 47 -4 17 -15 36 -25 42 -15 12 -15 13 6 13
37 0 34 10 -151 432 -7 15 -22 28 -35 31 -32 6 -38 23 91 -272 41 -95 73 -178
70 -182 -3 -5 -13 -9 -23 -9 -14 0 -40 50 -115 223 -53 123 -96 229 -96 235 0
7 6 12 13 12 6 0 -11 11 -39 24 -28 13 -55 29 -58 35 -4 6 -11 11 -16 11 -5 0
3 -26 17 -57z"/>
<path d="M2250 5476 c0 -4 23 -60 51 -125 28 -64 69 -156 90 -205 21 -49 39
-95 39 -102 0 -8 5 -14 10 -14 13 0 13 43 1 56 -5 5 -18 32 -29 59 -11 28 -32
77 -47 110 -15 33 -41 92 -58 130 -28 65 -57 110 -57 91z"/>
<path d="M12426 4774 c4 -244 9 -329 20 -360 18 -51 101 -132 172 -168 l51
-26 -3 27 c-2 15 -10 29 -18 32 -31 13 -106 84 -101 98 4 9 0 11 -13 6 -14 -4
-12 0 6 15 14 12 19 21 13 22 -22 0 -14 30 7 30 23 0 35 36 26 80 -3 17 -6
114 -7 217 -1 183 -1 188 -23 205 l-23 17 5 -250 c4 -244 4 -249 -16 -249 -11
0 -22 6 -25 13 -3 8 -7 118 -8 245 -2 169 0 234 9 245 10 11 9 17 -5 28 -9 8
-29 31 -45 53 l-28 39 6 -319z"/>
<path d="M13695 4568 c19 -12 20 -24 20 -265 0 -218 2 -253 15 -253 12 0 13
-2 1 -9 -11 -7 -11 -10 0 -15 8 -3 -43 -3 -113 0 -112 5 -126 4 -124 -10 4
-30 23 -37 157 -56 238 -34 439 -51 677 -57 230 -6 232 -6 232 15 0 11 8 22
18 24 9 3 -19 8 -63 12 -135 13 -120 -21 -120 272 0 204 3 256 14 263 9 6 5 9
-14 9 l-28 0 5 -229 c5 -193 4 -230 -9 -241 -27 -22 -33 12 -35 207 -1 105 -2
208 -2 230 l-1 40 -50 6 c-27 3 -83 9 -124 13 l-74 7 4 -243 c3 -211 2 -243
-11 -243 -13 0 -16 33 -21 210 -3 116 -7 226 -8 246 l-1 36 -62 7 c-35 4 -85
10 -112 13 l-49 6 8 -245 c7 -252 4 -277 -30 -248 -12 10 -15 55 -15 256 l0
244 -27 0 c-16 0 -39 3 -53 6 -24 5 -24 5 -5 -8z"/>
<path d="M13564 4554 c3 -9 6 -117 6 -240 0 -149 3 -224 10 -224 11 0 13 440
3 467 -3 7 -10 13 -15 13 -6 0 -7 -7 -4 -16z"/>
<path d="M26265 4407 c-11 -7 -22 -13 -24 -14 -2 -1 47 -92 108 -201 61 -110
111 -205 111 -212 0 -6 -10 -10 -21 -8 -16 2 -48 51 -130 198 -59 107 -110
198 -111 203 -3 7 -204 -69 -222 -84 -5 -4 31 -77 79 -163 50 -89 83 -160 79
-167 -4 -8 -3 -9 4 -5 7 4 21 -13 37 -44 22 -44 23 -51 10 -56 -9 -4 -17 -5
-19 -3 -3 3 -169 301 -220 394 -6 11 -12 22 -13 24 -4 7 -203 -72 -203 -81 0
-5 52 -102 115 -216 63 -113 114 -211 112 -217 -7 -19 -32 -15 -46 7 -8 12
-59 104 -114 203 -54 99 -103 185 -108 191 -5 6 -5 14 -1 19 8 8 -26 -1 -72
-20 -30 -13 -30 -13 -6 -17 17 -2 26 -10 28 -25 2 -13 8 -23 13 -23 5 0 9 -11
9 -24 0 -13 7 -29 15 -36 8 -7 15 -19 15 -26 0 -8 5 -14 11 -14 10 0 44 -68
41 -82 -3 -13 16 -9 21 5 2 6 2 2 0 -10 -4 -30 17 -73 36 -73 14 0 14 2 1 10
-8 5 -11 12 -7 17 9 9 28 -17 21 -29 -5 -8 11 -12 30 -9 5 1 3 -5 -4 -14 -7
-8 -10 -18 -6 -22 3 -4 13 2 22 13 15 18 15 18 5 -3 -13 -26 -14 -36 -3 -29 5
3 9 -1 9 -9 0 -9 -8 -7 -28 8 -16 11 -26 24 -23 29 3 4 0 8 -6 8 -6 0 -8 5 -4
13 6 8 3 8 -9 -2 -15 -12 -12 -17 33 -58 27 -24 52 -53 55 -64 4 -10 10 -17
14 -14 5 2 6 -6 4 -19 -3 -14 -1 -31 4 -39 7 -13 33 -5 163 47 235 95 564 250
615 290 17 13 18 17 6 25 -13 8 -13 12 -1 26 10 12 -3 9 -46 -10 -54 -25 -132
-55 -140 -55 -2 0 -1 7 3 16 3 9 -3 24 -16 35 -15 14 -20 28 -17 42 3 12 3 16
0 10 -10 -22 -22 -14 -18 10 2 12 1 16 -2 8 -9 -20 -34 42 -28 71 4 21 4 21
-5 3 -8 -17 -10 -18 -10 -2 -1 9 -6 17 -12 17 -5 0 -8 4 -5 9 9 14 -4 41 -20
41 -8 0 -14 9 -14 19 0 11 -5 23 -11 26 -6 4 -8 13 -5 21 3 8 0 11 -8 8 -15
-6 -29 22 -19 38 4 7 1 8 -7 3 -9 -5 -10 -2 -5 14 5 16 3 20 -9 15 -12 -4 -14
0 -10 20 3 21 1 24 -13 20 -13 -4 -12 0 6 15 25 23 18 27 -14 8z m-558 -399
c-3 -8 -6 -5 -6 6 -1 11 2 17 5 13 3 -3 4 -12 1 -19z m194 -295 c13 -16 12
-17 -3 -4 -10 7 -18 15 -18 17 0 8 8 3 21 -13z"/>
<path d="M25514 4042 c13 -21 38 -66 55 -100 19 -38 38 -62 48 -62 15 0 15 1
0 18 -10 10 -17 22 -17 27 0 18 -86 155 -98 155 -8 0 -4 -13 12 -38z"/>
<path d="M16503 3890 c4 -36 11 -182 18 -325 9 -223 14 -266 31 -302 26 -55
90 -111 181 -157 46 -24 64 -30 48 -17 -13 12 -18 21 -12 21 19 0 0 29 -33 49
-59 37 -77 58 -82 97 -3 21 -10 42 -17 46 -7 5 -2 8 15 8 15 0 29 3 31 8 3 4
1 79 -4 167 -4 88 -9 194 -10 236 -1 63 -5 78 -21 88 -11 7 -22 11 -24 8 -2
-2 2 -110 8 -240 12 -243 9 -277 -24 -244 -18 18 -44 482 -28 502 7 9 5 16 -7
26 -9 8 -30 32 -46 54 l-30 40 6 -65z"/>
<path d="M25756 3808 c3 -5 10 -6 15 -3 13 9 11 12 -6 12 -8 0 -12 -4 -9 -9z"/>
<path d="M5634 3670 c3 -58 11 -204 16 -325 12 -250 20 -277 93 -341 48 -40
157 -104 178 -104 8 1 2 8 -13 16 -31 16 -38 27 -12 17 33 -12 0 25 -59 67
-48 35 -57 46 -58 73 0 18 -2 39 -4 48 -2 10 3 16 14 15 14 -1 16 14 14 129
-1 72 -5 181 -8 243 -6 99 -9 114 -27 123 -21 11 -21 10 -12 -172 13 -287 13
-304 -11 -304 -18 0 -21 9 -27 80 -3 44 -9 158 -13 253 -7 164 -7 172 11 172
16 1 14 4 -9 21 -15 12 -39 38 -53 58 l-26 36 6 -105z"/>
<path d="M27510 3496 c0 -8 4 -37 9 -63 6 -26 26 -160 46 -298 21 -137 44
-265 52 -283 21 -43 84 -97 158 -132 63 -30 122 -49 96 -32 -8 6 -11 17 -8 25
4 11 -11 24 -51 45 -69 37 -102 61 -84 62 8 0 10 5 6 12 -5 7 -9 21 -9 31 -1
10 -8 23 -16 28 -10 6 -7 9 14 9 35 0 35 -5 -4 255 -24 159 -36 215 -50 229
-10 11 -21 17 -25 13 -5 -5 42 -347 62 -450 6 -29 -18 -49 -37 -30 -12 12 -81
462 -75 487 3 13 -9 33 -40 63 -27 27 -44 39 -44 29z"/>
<path d="M17768 3473 c7 -3 16 -2 19 1 4 3 -2 6 -13 5 -11 0 -14 -3 -6 -6z"/>
<path d="M17666 3419 c11 -126 22 -413 17 -428 -5 -14 -4 -14 9 -1 13 13 14
42 3 239 -7 123 -18 228 -24 234 -7 7 -8 -7 -5 -44z"/>
<path d="M17820 3460 c23 -7 23 -8 4 -9 -20 -1 -21 -4 -13 -40 5 -22 10 -122
11 -224 2 -130 7 -188 16 -199 14 -17 7 -47 -12 -49 -6 -1 0 -5 14 -10 16 -5
-29 -7 -120 -4 -94 2 -137 1 -122 -5 30 -12 28 -18 -10 -30 l-33 -10 33 5 c20
3 31 1 27 -5 -3 -6 3 -10 13 -10 11 0 78 -7 149 -15 328 -37 597 -45 812 -24
110 11 121 14 105 27 -18 14 -18 14 4 9 12 -3 20 -2 17 3 -3 4 -50 11 -104 15
-95 7 -99 8 -88 26 9 15 9 21 0 27 -6 4 -11 18 -11 32 1 14 -2 88 -6 165 -5
95 -4 135 3 126 12 -19 4 62 -11 101 -6 15 -8 34 -5 42 3 8 -1 17 -10 20 -14
6 -15 -5 -10 -96 4 -57 10 -165 13 -240 7 -134 6 -138 -13 -138 -24 0 -29 31
-38 265 -3 77 -8 156 -11 176 l-5 37 -115 7 c-64 4 -117 5 -120 2 -3 -3 0
-109 7 -236 10 -174 10 -234 1 -243 -20 -20 -29 29 -36 202 -3 91 -9 192 -12
226 l-6 61 -106 9 c-59 6 -108 9 -110 8 -2 -1 3 -110 10 -243 9 -187 9 -244 0
-253 -8 -8 -15 -9 -22 -2 -9 9 -28 269 -31 432 l-2 72 -41 -1 c-35 -1 -38 -2
-16 -9z m677 -157 c-3 -10 -5 -2 -5 17 0 19 2 27 5 18 2 -10 2 -26 0 -35z
m-645 -275 c-8 -8 -9 -4 -5 13 4 13 8 18 11 10 2 -7 -1 -18 -6 -23z"/>
<path d="M6920 3290 c0 -5 3 -10 8 -10 4 0 7 -21 8 -47 3 -118 21 -393 27
-399 3 -3 2 -17 -3 -30 -7 -17 -6 -24 3 -24 8 0 7 -4 -3 -10 -13 -8 -12 -10 3
-10 9 0 17 -5 17 -10 0 -7 -44 -9 -132 -6 -83 4 -124 2 -108 -3 l25 -9 -25 -2
c-23 -1 -23 -2 -5 -10 18 -8 18 -9 -5 -10 -95 -7 302 -47 595 -61 227 -10 587
-2 515 12 -19 3 -28 7 -20 8 11 2 9 5 -5 11 -18 8 -18 9 5 10 49 4 -30 18
-107 19 -58 1 -73 4 -73 16 0 8 5 15 10 15 7 0 7 6 0 19 -13 25 -13 41 0 21 8
-11 9 -7 4 15 -4 17 -11 36 -17 43 -6 8 -5 17 3 27 6 8 10 20 7 27 -3 8 -6 5
-8 -7 -2 -11 -5 18 -8 65 -4 52 -2 88 4 93 6 6 6 10 -2 14 -7 2 -13 9 -13 14
0 6 5 7 10 4 6 -4 10 8 10 30 0 22 -4 34 -10 30 -6 -4 -10 7 -10 24 0 17 5 31
10 31 6 0 10 5 10 10 0 6 -7 10 -16 10 -8 0 -12 5 -9 10 4 6 11 8 16 5 5 -4 9
-2 9 3 0 9 -23 22 -39 22 -5 0 -7 -26 -4 -57 14 -225 21 -397 16 -409 -3 -8
-13 -14 -22 -12 -14 3 -18 36 -29 238 -7 129 -14 236 -16 237 -6 6 -231 20
-237 14 -4 -3 0 -109 7 -235 14 -223 11 -267 -15 -240 -5 5 -15 115 -22 244
-6 129 -13 236 -14 238 -6 8 -210 19 -215 12 -3 -5 1 -113 8 -241 13 -233 11
-258 -21 -246 -11 4 -15 42 -21 169 -3 89 -9 202 -13 251 l-6 87 -38 0 c-22 0
-39 -4 -39 -10z m47 -122 c-3 -8 -6 -5 -6 6 -1 11 2 17 5 13 3 -3 4 -12 1 -19z
m4 -234 c-5 -16 -10 -21 -10 -12 -1 18 10 51 15 45 2 -1 -1 -16 -5 -33z m19
-84 c0 -5 -4 -10 -10 -10 -5 0 -10 5 -10 10 0 6 5 10 10 10 6 0 10 -4 10 -10z"/>
<path d="M6794 3190 c3 -58 9 -167 12 -242 4 -76 11 -138 16 -138 11 0 10 27
-3 265 -6 110 -16 205 -22 210 -6 7 -7 -25 -3 -95z"/>
<path d="M18511 3204 c0 -11 3 -14 6 -6 3 7 2 16 -1 19 -3 4 -6 -2 -5 -13z"/>
<path d="M21014 3198 c-18 -8 -21 -17 -18 -51 2 -23 8 -129 14 -236 5 -107 11
-195 12 -196 2 -1 16 -5 32 -9 l29 -7 -6 88 c-4 48 -10 157 -13 241 -6 127 -5
152 7 152 10 1 8 5 -5 15 -23 17 -24 17 -52 3z"/>
<path d="M29293 3183 c-51 -3 -63 -7 -63 -21 0 -9 16 -114 34 -232 33 -211 35
-245 12 -237 -11 4 -27 84 -66 340 l-22 147 -109 0 c-93 0 -109 -2 -109 -16 0
-8 16 -117 35 -241 19 -124 32 -229 29 -234 -9 -15 -32 -10 -38 9 -4 14 -76
465 -76 478 0 2 -26 3 -57 3 -33 -1 -45 -4 -29 -6 22 -4 26 -7 15 -14 -11 -7
-11 -9 -1 -9 7 0 10 -4 7 -10 -3 -5 -2 -10 3 -10 4 0 9 -23 11 -52 1 -29 7
-58 13 -65 6 -7 8 -22 5 -33 -3 -11 -1 -37 4 -57 5 -21 11 -60 13 -88 13 -170
19 -204 35 -208 9 -3 -27 -5 -80 -6 -53 0 -111 -4 -128 -7 -28 -6 -30 -8 -14
-20 15 -11 16 -13 3 -17 -8 -3 -22 -8 -30 -10 -8 -3 110 -6 262 -6 276 -1 529
14 757 44 63 8 122 16 130 16 9 1 1 4 -18 8 -38 7 -52 27 -24 34 10 3 -28 5
-85 6 -60 1 -101 5 -98 10 4 5 0 12 -6 14 -10 4 -10 6 0 6 15 1 16 47 1 57 -6
3 -9 21 -7 39 2 19 0 31 -5 28 -6 -3 -8 8 -5 25 2 18 0 28 -5 25 -5 -3 -6 7
-2 26 4 18 2 37 -3 44 -5 7 -12 35 -16 62 -3 28 -9 63 -13 79 -4 19 -2 27 5
22 6 -4 8 2 5 14 -3 11 -9 20 -14 20 -5 0 -9 11 -9 25 0 14 -4 25 -10 25 -14
0 -13 -12 24 -243 24 -153 30 -212 22 -222 -6 -8 -16 -11 -22 -7 -6 4 -26 99
-43 212 -17 113 -34 217 -37 233 -6 30 -5 30 -181 20z"/>
<path d="M18511 3164 c0 -11 3 -14 6 -6 3 7 2 16 -1 19 -3 4 -6 -2 -5 -13z"/>
<path d="M21110 3100 c0 -134 22 -415 33 -422 25 -16 34 -8 31 30 -4 42 -24
384 -24 410 0 9 -9 23 -20 30 -19 12 -20 10 -20 -48z"/>
<path d="M28713 3130 c3 -11 20 -119 38 -240 18 -123 37 -216 42 -211 4 4 1
56 -8 117 -35 226 -54 349 -55 352 0 1 -5 2 -11 2 -6 0 -9 -9 -6 -20z"/>
<path d="M13894 2998 c4 -79 9 -167 12 -195 5 -51 7 -53 36 -53 l30 0 -7 139
c-6 122 -5 140 8 143 12 2 2 18 -34 56 l-51 52 6 -142z"/>
<path d="M14006 2916 c3 -61 7 -126 10 -144 5 -31 6 -32 49 -30 25 2 45 6 45
11 0 4 -3 7 -7 7 -5 0 -7 41 -6 92 1 79 4 93 20 99 10 4 13 8 7 8 -5 1 -35 16
-66 35 l-56 34 4 -112z"/>
<path d="M14150 2891 c0 -15 3 -56 6 -90 6 -50 10 -61 25 -61 17 0 18 7 13 78
-7 94 -9 102 -29 102 -10 0 -15 -10 -15 -29z"/>
<path d="M14301 2814 c0 -11 3 -14 6 -6 3 7 2 16 -1 19 -3 4 -6 -2 -5 -13z"/>
<path d="M22280 2808 c11 -9 15 -36 16 -98 1 -122 15 -313 24 -325 6 -8 6 -41
1 -119 -1 -5 -49 -6 -112 -3 -97 5 -111 4 -116 -11 -4 -9 -11 -21 -17 -25 -6
-4 1 -5 17 -1 15 3 27 2 27 -4 0 -21 369 -51 736 -59 283 -5 311 -5 317 10 4
10 1 17 -6 17 -7 1 -1 7 13 15 24 14 23 14 -26 15 -96 0 -144 11 -144 31 0 11
-4 19 -8 19 -5 0 -5 21 -1 48 4 26 8 58 7 72 0 23 -1 22 -8 -5 -7 -23 -8 -16
-8 35 -1 36 -3 116 -7 178 -4 76 -3 112 4 112 6 0 11 5 11 11 0 5 -5 7 -12 3
-8 -5 -9 0 -6 14 4 15 2 22 -8 22 -17 0 -18 -68 -4 -294 8 -118 7 -162 -1
-172 -26 -32 -36 5 -43 154 -4 81 -9 186 -13 233 l-6 86 -115 8 c-63 3 -118 3
-122 -2 -4 -4 -1 -111 7 -237 13 -223 10 -268 -16 -240 -5 5 -15 117 -21 249
-7 132 -13 241 -14 242 0 1 -49 5 -108 9 l-108 7 0 -54 c0 -30 5 -139 11 -243
8 -152 8 -191 -2 -197 -29 -17 -36 13 -43 173 -6 155 -17 321 -20 325 -1 1
-22 5 -46 8 -38 5 -43 4 -30 -7z m53 -348 c-3 -12 -8 -19 -11 -16 -5 6 5 36
12 36 2 0 2 -9 -1 -20z"/>
<path d="M22154 2705 c3 -60 9 -172 12 -248 5 -89 10 -135 17 -128 12 12 -11
449 -25 471 -6 10 -7 -23 -4 -95z"/>
<path d="M14300 2764 c0 -8 5 -12 10 -9 6 4 8 11 5 16 -9 14 -15 11 -15 -7z"/>
<path d="M8867 2713 c-4 -3 -7 -35 -7 -70 0 -45 -4 -63 -13 -63 -25 0 -37 25
-37 78 0 45 -3 53 -16 48 -9 -3 -22 -6 -30 -6 -10 0 -14 -15 -14 -57 0 -80 14
-122 56 -171 l35 -42 32 17 c25 13 28 18 15 21 -21 4 -22 11 -8 47 5 14 6 24
1 21 -5 -3 -11 3 -14 13 -3 13 0 18 8 15 25 -10 35 21 28 89 -5 62 -16 80 -36
60z"/>
<path d="M14846 2693 c-12 -12 -6 -33 9 -33 8 0 15 6 15 14 0 17 -14 28 -24
19z"/>
<path d="M15003 2693 c-7 -2 -13 -10 -13 -16 0 -8 4 -7 12 1 7 7 20 12 30 12
15 0 17 -6 14 -35 -4 -31 -2 -36 22 -41 15 -3 64 -17 108 -30 45 -13 84 -24
88 -24 10 0 1 110 -9 110 -5 0 -57 7 -115 15 -114 16 -119 16 -137 8z"/>
<path d="M14991 2644 c0 -11 3 -14 6 -6 3 7 2 16 -1 19 -3 4 -6 -2 -5 -13z"/>
<path d="M15306 2651 c-4 -7 -5 -34 -1 -61 l7 -49 76 -36 c42 -20 92 -48 110
-62 18 -14 36 -23 38 -20 3 3 2 55 -2 116 l-7 111 -32 0 c-18 0 -66 3 -107 6
-53 5 -77 3 -82 -5z"/>
<path d="M14958 2643 c7 -3 16 -2 19 1 4 3 -2 6 -13 5 -11 0 -14 -3 -6 -6z"/>
<path d="M15563 2634 c-9 -4 -13 -27 -12 -72 2 -61 2 -64 10 -27 5 29 7 16 5
-47 -3 -81 -1 -90 26 -130 32 -50 35 -63 44 -221 l6 -118 297 1 c304 1 368 7
363 30 -2 7 3 17 10 21 7 5 -39 9 -107 10 -66 1 -124 2 -130 4 -5 1 -26 3 -45
5 -19 1 -28 4 -20 6 13 4 15 26 12 132 -3 168 -21 352 -35 352 -6 0 -2 7 9 16
10 8 13 13 7 9 -7 -3 -13 -1 -13 4 0 7 -27 11 -69 11 l-70 0 6 -107 c3 -60 8
-160 12 -223 8 -117 0 -163 -22 -141 -8 8 -16 97 -24 242 -6 127 -13 232 -15
233 -6 6 -233 15 -245 10z"/>
<path d="M25704 2343 c4 -164 9 -312 12 -329 2 -18 18 -50 34 -72 35 -48 155
-137 171 -126 7 4 9 3 6 -3 -4 -6 6 -15 21 -22 22 -9 24 -9 11 1 -9 7 -15 22
-13 33 2 14 -11 29 -45 53 -58 39 -76 59 -86 91 -6 18 -4 22 6 15 10 -6 10 -3
-1 11 -14 17 -13 18 2 12 12 -4 15 -2 11 9 -3 9 1 14 12 14 15 0 17 19 13 236
-1 130 -5 239 -8 242 -3 4 -13 13 -23 21 -17 14 -18 4 -12 -231 5 -206 4 -246
-8 -251 -7 -3 -18 -2 -24 1 -16 10 -28 479 -13 497 9 11 5 23 -21 55 -18 22
-37 40 -42 40 -5 0 -6 -117 -3 -297z"/>
<path d="M30020 2598 c0 -124 23 -539 32 -575 13 -54 62 -111 139 -162 59 -39
99 -52 99 -31 0 6 -6 10 -12 10 -10 0 -10 2 0 9 9 5 1 16 -30 36 -72 49 -89
66 -77 82 9 10 8 13 -1 13 -8 0 -10 3 -7 7 4 3 1 13 -6 21 -10 13 -9 14 2 7
11 -6 13 -4 8 8 -4 11 -1 17 8 17 7 0 16 4 20 9 4 8 -11 399 -19 454 -1 10
-12 24 -24 33 l-23 15 6 -93 c15 -222 22 -384 17 -395 -5 -15 -28 -17 -37 -3
-3 5 -12 117 -20 247 -12 206 -12 239 0 249 12 9 8 17 -23 47 -21 20 -41 37
-45 37 -4 0 -7 -19 -7 -42z"/>
<path d="M22991 2614 c0 -11 3 -14 6 -6 3 7 2 16 -1 19 -3 4 -6 -2 -5 -13z"/>
<path d="M1286 2585 c2 -11 11 -158 19 -328 13 -265 17 -312 34 -345 28 -55
99 -115 189 -161 45 -23 52 -22 26 3 -8 9 -11 16 -5 16 21 0 11 15 -27 40 -60
39 -96 71 -98 86 -1 8 2 12 6 9 5 -3 7 8 5 24 -3 23 1 30 17 34 20 6 21 10 14
119 -3 62 -9 169 -13 238 -5 97 -10 128 -22 137 -25 19 -28 16 -25 -29 1 -24
5 -108 9 -188 3 -80 8 -169 11 -198 4 -42 2 -53 -11 -58 -9 -4 -21 -2 -26 3
-5 5 -14 83 -19 174 -5 90 -12 197 -14 237 -3 52 -1 76 9 86 12 11 10 16 -8
33 -12 10 -34 35 -49 54 -19 24 -25 28 -22 14z m144 -655 c0 -5 -2 -10 -4 -10
-3 0 -8 5 -11 10 -3 6 -1 10 4 10 6 0 11 -4 11 -10z"/>
<path d="M28688 2583 c6 -2 18 -2 25 0 6 3 1 5 -13 5 -14 0 -19 -2 -12 -5z"/>
<path d="M23012 2490 c0 -14 2 -19 5 -12 2 6 2 18 0 25 -3 6 -5 1 -5 -13z"/>
<path d="M31305 2192 c13 -9 13 -16 25 -267 12 -264 11 -257 35 -273 14 -10
15 -12 3 -8 -25 7 -258 9 -265 2 -4 -3 3 -6 15 -6 12 0 22 -5 22 -11 0 -6 -7
-8 -16 -5 -8 3 -13 2 -9 -3 3 -5 -1 -11 -7 -14 -7 -2 1 -4 17 -5 17 0 86 -8
155 -16 69 -9 190 -20 270 -26 168 -11 647 -14 653 -2 3 4 1 17 -4 30 -7 19
-16 22 -71 23 -35 0 -70 3 -78 7 -19 9 -24 32 -7 32 7 1 5 6 -6 14 -14 11 -17
29 -17 102 -1 49 -3 121 -6 159 -3 39 -1 65 3 58 4 -6 8 11 8 38 0 47 -8 63
-18 37 -3 -7 -5 6 -5 30 0 23 4 42 9 42 5 0 9 5 9 10 0 6 -9 10 -21 10 -20 0
-20 -3 -14 -102 19 -309 20 -351 8 -367 -8 -11 -15 -13 -22 -6 -6 6 -16 113
-22 242 l-12 232 -51 5 c-144 15 -184 17 -190 8 -5 -8 0 -129 18 -410 3 -48 0
-65 -11 -69 -7 -3 -16 -3 -18 -1 -3 3 -10 88 -15 189 -6 101 -12 211 -14 244
l-3 60 -103 8 c-57 4 -107 4 -111 0 -4 -4 -4 -82 1 -173 17 -285 17 -299 9
-311 -15 -24 -39 -1 -39 38 0 21 -5 103 -10 183 -5 80 -10 175 -11 213 l-2 67
-46 0 c-25 0 -41 -4 -36 -8z"/>
<path d="M31184 2034 c10 -244 18 -326 28 -316 7 7 6 72 -1 184 -6 95 -12 197
-13 226 -1 29 -6 56 -11 59 -7 4 -8 -49 -3 -153z"/>
<path d="M26966 2151 c21 -9 22 -15 23 -218 1 -114 4 -239 7 -277 l7 -69 -34
6 c-77 13 -170 19 -196 12 l-28 -8 25 -7 c25 -8 24 -8 -5 -10 l-30 -2 35 -10
c159 -43 494 -78 891 -94 122 -4 172 -3 185 6 16 10 17 11 2 6 -22 -7 -24 12
-3 20 33 13 10 22 -75 28 -83 7 -109 17 -77 29 6 3 8 6 2 6 -6 1 -9 24 -8 53
1 47 1 49 -6 18 -6 -23 -9 13 -10 110 -1 80 -4 182 -8 228 -5 75 -4 82 12 82
22 0 17 7 -8 12 -17 3 -18 -12 -20 -232 -2 -201 -4 -235 -17 -235 -13 0 -16
37 -24 235 -4 129 -10 237 -11 238 -3 3 -32 7 -198 26 l-38 4 2 -241 c2 -218
0 -242 -15 -245 -13 -3 -16 7 -17 65 -1 37 -4 149 -8 248 l-6 180 -80 7 c-44
4 -93 9 -109 13 l-29 5 5 -240 c4 -173 2 -245 -6 -256 -27 -37 -34 10 -37 258
l-4 248 -30 0 c-16 0 -41 3 -55 5 -23 5 -23 5 -4 -4z"/>
<path d="M26844 1971 c3 -101 6 -213 6 -248 0 -46 3 -62 11 -57 15 9 3 464
-13 479 -7 7 -9 -44 -4 -174z"/>
<path d="M2580 2116 c16 -10 20 -16 10 -17 -8 0 -4 -5 10 -9 19 -6 20 -8 6 -9
-17 -1 -18 -7 -11 -98 4 -54 9 -150 10 -213 2 -122 11 -180 29 -193 6 -5 -49
-5 -121 -1 -99 5 -133 3 -133 -5 0 -7 5 -9 10 -6 6 3 10 1 10 -4 0 -6 -5 -11
-12 -11 -7 0 -8 -3 -3 -9 38 -35 778 -85 996 -67 80 7 86 9 85 29 -1 20 -9 23
-82 31 l-81 9 -1 41 c0 23 -3 70 -6 106 -4 43 -3 58 3 45 6 -14 8 -2 4 35 -3
30 -10 57 -14 60 -5 3 -8 37 -8 75 1 39 -1 88 -4 110 -3 22 0 43 5 46 5 3 0 9
-11 12 -21 5 -21 3 -15 -81 15 -217 19 -375 9 -388 -26 -35 -34 5 -46 236 -6
129 -12 236 -13 236 -4 5 -238 18 -241 14 -2 -3 2 -109 9 -235 12 -219 9 -272
-15 -248 -9 9 -29 299 -29 415 l0 76 -87 7 c-49 4 -100 9 -115 10 l-27 3 5
-76 c20 -308 22 -407 10 -420 -27 -28 -35 14 -47 253 -6 132 -12 241 -14 242
-1 2 -24 5 -51 9 -47 5 -48 5 -24 -10z"/>
<path d="M2450 2116 c-3 -2 -1 -67 3 -143 4 -76 10 -185 13 -241 4 -66 10
-100 16 -94 6 6 5 87 -2 223 -11 200 -19 267 -30 255z"/>
<path d="M16584 2050 c3 -14 12 -164 21 -335 19 -348 20 -352 99 -422 49 -43
164 -109 173 -99 4 3 1 6 -6 6 -9 0 -9 5 -1 21 11 19 10 20 -12 8 -21 -11 -22
-11 -10 4 11 13 10 17 -10 28 -13 6 -40 25 -60 41 -35 27 -38 34 -38 79 0 38
3 49 16 49 15 0 16 17 10 163 -11 276 -15 316 -37 328 -19 10 -19 6 -15 -123
3 -73 8 -184 12 -245 7 -110 6 -113 -14 -113 -11 0 -23 3 -25 8 -3 4 -11 117
-18 251 -10 193 -10 246 0 249 7 2 -3 20 -26 46 -21 23 -44 51 -51 62 -12 18
-12 17 -8 -6z"/>
<path d="M27670 1998 c0 -36 10 -32 14 6 2 14 -1 26 -5 26 -5 0 -9 -14 -9 -32z"/>
<path d="M3913 1693 c21 -365 22 -369 95 -439 51 -49 169 -116 159 -91 -3 9
-1 17 5 19 7 3 1 12 -13 21 -13 10 -43 31 -65 47 -37 25 -42 33 -42 71 -1 23
-7 46 -14 51 -9 6 -6 7 9 3 33 -9 36 18 24 238 -6 108 -11 206 -11 220 0 15
-9 31 -22 39 l-23 15 7 -141 c15 -335 15 -351 -7 -351 -25 0 -30 40 -40 313
-7 176 -6 192 9 192 12 0 6 11 -21 38 -22 20 -45 48 -54 60 -12 21 -12 -20 4
-305z"/>
<path d="M17878 1583 c14 -10 29 -248 24 -389 -2 -73 0 -82 15 -80 10 0 21 6
25 11 4 6 8 2 8 -9 0 -13 -5 -16 -16 -12 -13 5 -15 2 -11 -14 3 -11 0 -20 -6
-20 -7 0 -4 -5 6 -11 9 -5 17 -15 17 -22 0 -7 -4 -6 -10 3 -8 12 -10 12 -10 1
0 -11 -22 -12 -120 -6 -116 6 -123 5 -119 -21 0 -4 -5 -10 -11 -14 -7 -4 5
-10 27 -13 73 -12 339 -37 478 -46 181 -11 594 -12 620 -1 19 8 19 9 -2 9 -27
1 -32 30 -5 32 30 3 -81 17 -135 18 -29 1 -53 6 -53 11 0 6 5 10 10 10 6 0 10
5 10 11 0 5 -3 8 -7 6 -5 -3 -9 7 -10 21 -1 25 0 26 13 7 18 -25 18 -16 -2 31
-19 43 -31 204 -25 327 0 6 -2 32 -5 56 -5 31 -3 42 5 37 6 -4 11 -2 11 3 0
10 -20 15 -37 9 -7 -3 -7 -18 7 -278 8 -142 7 -177 -3 -188 -27 -26 -34 13
-46 243 -7 126 -13 231 -14 232 -1 1 -56 5 -122 9 l-120 7 12 -239 c10 -189
10 -239 1 -246 -7 -4 -16 -4 -19 0 -4 4 -12 115 -19 247 -7 132 -13 241 -14
242 -4 4 -211 20 -215 16 -3 -2 1 -112 8 -245 12 -242 9 -280 -21 -250 -13 13
-13 11 -28 292 -6 113 -13 206 -15 208 -2 2 -23 6 -47 9 -27 3 -38 1 -30 -4z
m46 -59 c3 -8 2 -12 -4 -9 -6 3 -10 10 -10 16 0 14 7 11 14 -7z m-214 -514
c13 -8 13 -10 -2 -10 -9 0 -20 5 -23 10 -8 13 5 13 25 0z"/>
<path d="M17750 1560 c0 -90 25 -460 32 -460 11 0 10 49 -3 275 -6 104 -15
194 -20 200 -5 5 -9 -1 -9 -15z"/>
<path d="M5197 1533 c10 -8 12 -11 4 -7 -11 5 -13 3 -8 -10 4 -10 7 -33 7 -52
0 -20 3 -33 8 -31 4 3 7 -52 7 -121 0 -70 2 -169 4 -219 3 -86 5 -93 24 -93
11 0 18 -3 14 -6 -3 -4 -62 -6 -131 -5 -106 1 -124 -1 -122 -14 1 -8 6 -19 12
-25 12 -12 214 -36 417 -50 194 -13 660 -13 652 1 -4 5 -1 9 4 9 6 0 3 9 -6
20 -15 17 -30 20 -93 20 l-75 0 -2 48 c-1 26 -7 121 -12 212 -6 91 -7 174 -4
185 3 11 7 36 7 55 1 29 -3 36 -21 38 -22 3 -22 1 -17 -60 11 -144 22 -392 17
-405 -8 -21 -32 -15 -37 10 -3 12 -10 119 -16 237 -7 118 -13 216 -14 217 -7
7 -231 22 -237 16 -4 -4 -1 -111 7 -237 14 -224 11 -267 -15 -240 -6 5 -15
116 -22 247 -14 273 3 242 -141 252 -57 4 -87 2 -90 -5 -2 -6 2 -113 9 -238 7
-125 10 -233 8 -239 -7 -21 -34 -14 -39 10 -3 12 -10 126 -17 252 -6 127 -12
231 -13 231 0 1 -20 4 -44 7 -40 5 -42 4 -25 -10z m703 -62 c0 -6 -4 -13 -10
-16 -5 -3 -10 1 -10 9 0 9 5 16 10 16 6 0 10 -4 10 -9z m-13 -53 c-3 -8 -6 -5
-6 6 -1 11 2 17 5 13 3 -3 4 -12 1 -19z m-660 -55 c-3 -10 -5 -4 -5 12 0 17 2
24 5 18 2 -7 2 -21 0 -30z m0 -155 c-2 -13 -4 -3 -4 22 0 25 2 35 4 23 2 -13
2 -33 0 -45z m674 -205 c-12 -20 -14 -14 -5 12 4 9 9 14 11 11 3 -2 0 -13 -6
-23z"/>
<path d="M5065 1405 c12 -272 18 -355 28 -355 14 0 -9 445 -25 470 -6 9 -7
-33 -3 -115z"/>
<path d="M18592 1475 c0 -16 2 -22 5 -12 2 9 2 23 0 30 -3 6 -5 -1 -5 -18z"/>
<path d="M12006 1463 c6 -4 11 -33 12 -63 5 -113 23 -386 28 -417 3 -23 1 -33
-8 -34 -7 -1 1 -5 17 -9 28 -7 29 -8 5 -10 -23 -1 -24 -2 -5 -11 13 -6 -22 -8
-102 -6 -87 1 -126 -2 -134 -10 -11 -11 -9 -13 5 -13 9 0 15 -4 11 -9 -17 -29
334 -61 742 -68 l313 -5 10 27 c5 14 10 28 10 31 0 2 -24 4 -52 5 -51 0 -157
15 -129 18 7 0 11 7 8 15 -3 8 -1 16 5 18 6 2 4 10 -6 20 -14 15 -17 46 -19
217 -1 126 -6 201 -12 201 -5 0 -3 5 5 10 10 6 11 10 3 10 -22 0 -14 18 10 23
15 3 12 5 -12 6 l-34 1 6 -47 c4 -27 9 -132 13 -234 5 -142 4 -188 -6 -194 -6
-4 -15 -3 -20 1 -5 5 -14 115 -22 244 l-13 235 -118 8 c-66 5 -121 7 -123 4
-2 -2 2 -109 10 -238 8 -135 10 -238 5 -243 -25 -27 -33 24 -44 274 -3 69 -8
146 -11 171 l-6 47 -100 7 c-55 4 -104 3 -108 -2 -5 -4 -3 -111 5 -237 7 -127
11 -236 8 -243 -7 -17 -32 -17 -38 0 -4 12 -8 91 -21 360 l-7 137 -28 0 c-15
0 -36 3 -46 6 -11 3 -14 2 -7 -3z m701 -145 c-3 -7 -5 -2 -5 12 0 14 2 19 5
13 2 -7 2 -19 0 -25z"/>
<path d="M11884 1305 c10 -241 18 -337 28 -327 11 11 -12 454 -25 467 -6 6 -7
-43 -3 -140z"/>
<path d="M10833 1292 c-34 -20 -62 -42 -63 -47 0 -16 88 -99 138 -130 41 -25
45 -25 63 -9 18 16 16 18 -39 54 -59 38 -93 70 -74 70 7 0 9 7 5 17 -4 10 -2
14 4 10 12 -8 12 11 0 31 -5 7 -3 12 6 12 8 0 20 7 27 15 20 24 0 17 -67 -23z"/>
<path d="M14725 1235 c5 -77 11 -181 25 -439 9 -154 12 -173 35 -212 45 -77
186 -167 223 -144 16 11 16 11 0 6 -16 -5 -23 4 -15 19 1 2 -26 24 -60 49 -52
38 -100 84 -65 62 7 -4 10 6 8 33 -2 32 1 40 17 45 18 4 19 11 12 123 -3 65
-8 141 -10 168 -2 28 -5 80 -6 118 -2 69 -17 99 -37 75 -7 -9 -8 -62 -1 -168
5 -85 10 -185 12 -223 3 -47 0 -70 -9 -78 -31 -26 -39 12 -49 256 -3 72 -8
152 -11 178 -4 31 -2 53 7 63 10 12 7 20 -19 47 -17 18 -38 46 -46 62 -16 29
-16 28 -11 -40z"/>
<path d="M5913 1185 c0 -27 2 -38 4 -22 2 15 2 37 0 50 -2 12 -4 0 -4 -28z"/>
<path d="M18611 1204 c0 -11 3 -14 6 -6 3 7 2 16 -1 19 -3 4 -6 -2 -5 -13z"/>
<path d="M9148 1143 c-23 -6 -23 -7 7 -73 129 -279 162 -357 157 -368 -14 -37
-42 6 -130 203 -53 116 -96 211 -97 213 -1 1 -46 -11 -100 -28 -53 -16 -103
-30 -111 -30 -7 0 -15 -4 -18 -8 -2 -4 38 -102 90 -217 89 -199 105 -245 85
-245 -15 0 -27 22 -116 220 -48 107 -91 202 -96 211 -7 14 -19 13 -113 -14
-103 -30 -104 -31 -94 -56 5 -14 50 -115 99 -224 49 -109 87 -202 84 -207 -16
-26 -38 -5 -72 70 -19 44 -40 77 -44 74 -5 -3 -6 1 -3 9 2 7 -17 61 -44 118
-26 57 -54 119 -61 137 -13 30 -16 32 -50 26 -43 -8 -76 -23 -50 -24 19 0 55
-48 51 -67 -2 -7 9 -30 23 -52 14 -23 32 -60 42 -83 9 -24 25 -53 35 -64 10
-12 18 -25 16 -30 -4 -14 43 -134 53 -134 5 0 9 -11 9 -24 0 -15 7 -26 18 -28
20 -4 -56 -35 -166 -69 -40 -12 -75 -25 -77 -30 -3 -4 5 -5 16 -2 14 4 25 0
31 -11 5 -9 18 -16 29 -16 11 0 18 3 16 8 -3 4 10 8 28 9 117 6 957 296 939
324 -3 5 2 12 10 15 9 3 14 10 11 15 -3 4 -13 5 -22 2 -10 -4 -14 -2 -10 4 4
6 -34 -2 -83 -17 -50 -15 -90 -24 -90 -19 0 5 4 9 9 9 13 0 7 28 -9 43 -10 10
-11 9 -5 -2 6 -10 4 -12 -4 -6 -7 4 -11 20 -9 35 3 19 0 26 -8 23 -8 -3 -17
10 -24 36 -6 22 -15 43 -21 47 -6 3 -8 13 -5 21 3 8 2 12 -3 9 -5 -3 -16 12
-25 34 -18 47 -19 53 -7 46 5 -4 4 8 -2 24 -9 24 -13 27 -18 13 -5 -15 -6 -15
-12 1 -4 10 -4 23 0 28 3 6 1 8 -4 5 -12 -7 -26 34 -26 71 0 15 -4 21 -13 18
-20 -8 -17 11 4 23 18 11 10 12 -20 4z m-469 -568 c0 -5 -4 -3 -9 5 -5 8 -9
22 -9 30 0 16 17 -16 18 -35z"/>
<path d="M20610 1078 c0 -40 5 -147 11 -237 8 -132 7 -166 -3 -172 -35 -23
-41 10 -53 288 l-7 173 -24 0 c-14 0 -27 -7 -31 -16 -3 -9 -1 -121 6 -247 10
-187 16 -238 31 -267 33 -65 156 -162 206 -162 14 0 21 -5 17 -11 -4 -6 -1 -7
7 -2 10 6 9 11 -4 21 -13 9 -14 13 -4 16 7 3 -2 12 -22 23 -18 10 -39 23 -46
29 -6 6 -23 19 -37 29 -16 12 -23 25 -20 35 5 10 3 13 -6 8 -9 -6 -9 -3 1 13
10 16 10 23 0 33 -6 6 -12 17 -12 22 0 6 4 5 8 -1 7 -10 12 -10 27 1 18 13 18
22 6 237 -15 259 -13 242 -26 251 -21 16 -25 6 -25 -64z"/>
<path d="M10970 1090 c0 -5 12 -10 28 -9 24 0 25 1 7 9 -27 12 -35 12 -35 0z"/>
<path d="M7123 868 c169 -378 241 -534 254 -554 22 -34 86 -70 159 -88 84 -22
120 -21 126 2 5 16 -6 21 -74 37 -59 13 -78 21 -74 32 3 7 -1 16 -9 19 -8 4
-15 15 -15 25 0 10 -6 19 -12 19 -8 1 -6 6 5 14 9 7 17 17 17 23 0 7 -50 121
-143 323 -9 19 -22 51 -30 71 -11 26 -22 38 -41 41 -14 3 -26 4 -26 3 0 -2 45
-103 100 -226 85 -191 97 -225 84 -232 -11 -6 -20 -5 -29 4 -7 8 -56 110 -109
228 -69 154 -93 218 -86 226 8 10 2 16 -21 24 -18 6 -47 23 -66 37 l-33 25 23
-53z"/>
<path d="M8416 758 c31 -68 74 -162 95 -209 21 -48 39 -93 39 -100 0 -9 3 -10
11 -2 11 11 7 23 -47 143 -109 239 -131 284 -141 287 -7 3 13 -51 43 -119z"/>
<path d="M16016 811 c18 -8 20 -15 14 -60 -3 -28 -3 -51 2 -51 4 0 8 -46 9
-102 1 -57 4 -147 8 -201 3 -53 3 -97 -1 -97 -14 0 4 -29 20 -34 10 -2 -41 -4
-111 -4 -82 0 -133 -4 -140 -11 -8 -8 -6 -11 7 -11 9 0 15 -4 12 -9 -8 -12 11
-18 101 -30 254 -35 983 -58 983 -31 0 6 -4 10 -9 10 -5 0 -8 8 -7 18 1 14 -8
17 -49 20 -77 4 -92 9 -99 37 -4 14 -10 24 -14 21 -4 -2 -8 24 -9 57 -1 45 1
55 7 37 6 -16 7 -6 3 30 -3 30 -10 61 -16 68 -6 8 -8 61 -4 140 3 70 2 111 -3
92 -7 -35 -7 -35 -9 -5 -1 34 7 49 29 57 8 3 0 6 -19 5 l-33 0 6 -76 c15 -199
19 -388 7 -396 -7 -4 -17 -3 -22 2 -5 5 -14 113 -21 241 l-12 231 -40 6 c-23
3 -77 6 -121 7 l-80 3 4 -120 c2 -66 6 -171 10 -232 7 -123 6 -133 -14 -133
-14 0 -22 64 -30 275 -3 77 -8 158 -11 181 l-5 41 -106 7 c-58 3 -108 5 -109
3 -2 -1 3 -108 10 -237 7 -129 11 -241 8 -248 -5 -14 -28 -16 -36 -4 -3 5 -11
120 -18 255 l-12 247 -25 0 c-14 0 -37 3 -51 5 -22 5 -23 5 -4 -4z"/>
<path d="M21767 813 c24 -9 32 -74 36 -291 3 -181 6 -225 18 -233 12 -7 12 -9
-1 -10 -8 0 -4 -5 10 -10 16 -5 -29 -7 -120 -5 -119 2 -140 0 -116 -9 25 -11
26 -13 10 -19 -49 -19 68 -37 391 -61 215 -16 647 -19 680 -5 11 5 14 9 7 9
-7 1 -12 9 -10 19 3 14 -8 18 -70 22 -77 5 -94 16 -84 54 4 17 3 19 -9 9 -12
-10 -14 6 -14 114 0 68 -3 127 -8 130 -4 3 -5 47 -1 99 5 70 4 94 -5 94 -7 0
-10 4 -7 8 5 9 -11 39 -18 32 -2 -3 2 -106 9 -230 7 -123 10 -230 8 -237 -8
-21 -32 -15 -37 10 -3 12 -7 69 -10 127 -16 305 -18 329 -35 334 -9 3 -63 6
-121 8 l-105 3 3 -100 c2 -55 7 -161 13 -235 8 -132 3 -168 -21 -144 -5 5 -15
115 -21 244 -7 129 -15 238 -18 241 -3 4 -52 10 -107 14 -80 5 -102 4 -106 -7
-2 -7 1 -114 9 -238 7 -124 10 -231 8 -238 -7 -20 -34 -13 -39 11 -9 42 -28
465 -22 476 5 7 -4 11 -22 11 -16 0 -42 2 -58 4 -16 2 -24 1 -17 -1z m60 -475
c-2 -18 -4 -4 -4 32 0 36 2 50 4 33 2 -18 2 -48 0 -65z"/>
<path d="M15884 788 c3 -7 7 -74 10 -148 10 -230 18 -322 28 -312 4 4 4 86 -2
188 -6 98 -11 201 -13 228 -1 29 -7 51 -15 54 -6 2 -10 -2 -8 -10z"/>
<path d="M21654 670 c13 -271 19 -351 28 -342 12 12 -11 454 -25 467 -6 7 -7
-35 -3 -125z"/>
<path d="M22488 753 c7 -3 16 -2 19 1 4 3 -2 6 -13 5 -11 0 -14 -3 -6 -6z"/>
<path d="M22491 578 c-1 -16 4 -28 9 -28 12 0 12 8 0 35 -8 18 -9 17 -9 -7z"/>
<path d="M8490 320 c8 -5 20 -10 25 -10 6 0 3 5 -5 10 -8 5 -19 10 -25 10 -5
0 -3 -5 5 -10z"/>
</g>
</svg>
