<?xml version="1.0" encoding="utf-8"?>
<!-- Svg Vector Icons : http://www.onlinewebfonts.com/icon -->
<!DOCTYPE svg PUBLIC "-//W3C//DTD SVG 1.1//EN" "http://www.w3.org/Graphics/SVG/1.1/DTD/svg11.dtd">
<svg version="1.1" xmlns="http://www.w3.org/2000/svg" xmlns:xlink="http://www.w3.org/1999/xlink" x="0px" y="0px" viewBox="0 0 1000 1000" enable-background="new 0 0 1000 1000" xml:space="preserve">
<metadata> Svg Vector Icons : http://www.onlinewebfonts.com/icon </metadata>
<g><g transform="translate(0.000000,511.000000) scale(0.100000,-0.100000)"><path d="M557.7,3142.5c-184-38.3-354.5-182.1-421.6-358.4c-38.3-105.4-38.3-115-34.5-2705.9l5.7-2600.5l51.7-97.7c28.7-53.7,92-134.2,139.9-176.3c172.5-151.4-253-138,4733.4-134.2l4465.1,5.7l105.4,59.4c122.6,69,233.8,205.1,272.1,331.5c19.2,70.9,24.9,569.2,24.9,2656.1c0,2485.5-1.9,2571.8-36.4,2663.7c-47.9,124.6-180.1,262.5-304.7,318.1l-99.6,46l-4417.2,1.9C2612.1,3154,594.1,3150.1,557.7,3142.5z M3681.4,2479.4c99.7-15.3,247.2-46,325.8-67.1c185.9-51.7,567.2-237.6,730.1-356.4l126.5-93.9l-113.1-124.6c-216.5-235.7-431.2-597.9-534.7-894.9l-34.5-101.6h101.6c95.8,0,103.5,3.8,116.9,53.7c47.9,193.6,287.5,592.2,492.5,816.4l118.8,132.2L5134,1711c197.4-214.6,367.9-492.5,498.3-816.4c21.1-47.9,30.7-53.7,118.8-53.7c51.7,0,95.8,3.8,95.8,9.6c0,21.1-120.7,308.5-174.4,417.8c-82.4,162.9-260.6,419.7-398.6,571.1l-115,126.5l93.9,69c682.2,509.8,1607.8,611.3,2410.8,266.4c366-159.1,772.3-486.8,998.4-808.7C8865.2,1205,9030,810.3,9087.5,476.8c30.7-180.1,32.6-597.9,1.9-778c-168.6-1009.9-916-1789.9-1925.9-2002.6c-251.1-53.7-691.8-57.5-923.7-9.6c-344.9,72.8-703.3,226.1-956.3,410.1l-122.6,90.1l86.2,95.8c233.8,260.6,412,540.4,519.3,814.5c97.7,245.3,97.7,230-15.3,230c-74.7,0-99.7-7.7-109.2-32.6c-44.1-136.1-153.3-358.3-239.5-496.3c-120.7-191.6-348.8-467.6-389-467.6c-15.3,0-78.6,59.4-139.9,130.3c-195.5,228.1-316.2,421.6-427.4,684.2l-72.8,172.5l-97.7,5.7c-115,7.7-115,23-5.7-245.3c109.2-270.2,258.7-505.9,481-760.8c55.6-65.1,97.7-128.4,90.1-138c-26.8-46-367.9-253-536.6-327.7c-367.9-161-804.9-231.9-1178.6-193.5c-484.8,51.7-908.4,216.5-1278.2,504c-166.7,126.5-448.4,438.9-559.6,617.1c-481,774.2-498.3,1734.3-44.1,2518.1C1736.3,2149.8,2723.2,2627,3681.4,2479.4z"/><path d="M1868.5,128l-115-619l122.6-5.7c69-3.8,132.2,1.9,139.9,9.6c7.7,7.7,51.7,210.8,95.8,450.4c46,237.6,88.2,431.2,95.8,427.3c5.7-5.7,17.2-157.1,24.9-339.2c7.7-182.1,17.2-381.3,24.9-442.7l11.5-111.1l134.1,5.7l134.1,5.7l203.1,463.8c109.2,254.9,203.1,461.8,205.1,459.9c3.8-1.9-32.6-203.1-78.6-444.6c-47.9-243.4-86.2-452.3-86.2-465.7c0-19.2,36.4-23,147.6-19.2l149.5,5.7l107.3,555.8c59.4,306.6,113.1,584.5,118.8,619l11.5,61.3h-245.3h-245.3l-162.9-373.7c-126.5-291.3-166.7-366-176.3-331.5c-5.8,24.9-11.5,166.7-11.5,314.3c0,149.5-5.7,299-11.5,331.5l-11.5,59.4h-233.8h-231.9L1868.5,128z"/><path d="M6211,735.5c0-3.8-38.3-220.4-86.2-481c-103.5-567.3-107.3-622.8-32.6-697.6c69-69,161-86.2,299-57.5c78.6,15.3,107.3,30.7,107.3,53.7c0,17.3,5.7,65.2,11.5,105.4c11.5,69,11.5,70.9-46,70.9c-136.1,0-138,7.7-78.6,320l40.3,214.6l78.6,5.7l80.5,5.7l21.1,120.7l21.1,118.8H6554c-82.4,0-90.1,17.3-57.5,159.1l17.2,70.9h-151.4C6280,745.1,6211,741.3,6211,735.5z"/><path d="M3537.7,509.4l-113.1-23l-23-111.1c-21.1-111.1-21.1-113.1,19.2-101.6c21.1,7.7,113.1,17.2,203.1,23c203.1,13.4,268.3-5.8,268.3-84.3v-55.6l-166.7-9.6C3445.7,130,3286.6,38,3238.7-140.3c-36.4-138,13.4-277.9,118.8-333.4c84.3-42.2,264.5-34.5,367.9,19.2l90.1,44.1v-44.1c0-44.1,5.7-46,124.6-46c69,0,124.6,1.9,124.6,5.8c0,1.9,26.8,151.4,57.5,329.6c30.7,180.1,57.5,360.3,57.5,402.4c0,109.2-53.7,201.2-141.8,247.2C3945.8,530.5,3706.3,543.9,3537.7,509.4z M3844.3-92.4c-23-97.7-76.7-166.7-149.5-195.4c-63.2-23-74.7-23-118.8,5.7c-42.2,26.8-49.8,46-44.1,103.5c3.8,59.4,17.2,76.7,72.8,103.5c36.4,19.2,109.2,34.5,161,34.5C3857.7-40.6,3857.7-40.6,3844.3-92.4z"/><path d="M4595.5,507.5c-291.3-105.4-442.7-525.1-291.3-818.3c69-132.2,231.9-199.3,479.1-195.5c262.6,3.8,281.7,13.4,308.5,151.4c13.4,61.3,21.1,115,19.2,118.8c-3.8,1.9-28.8-3.8-57.5-13.4c-26.8-11.5-103.5-24.9-168.6-32.6c-207-21.1-341.1,42.2-341.1,159.1c0,44.1,0,44.1,295.1,44.1c195.5,0,300.9,7.7,310.5,21.1c19.2,32.6,32.6,254.9,19.2,331.5c-17.2,88.1-95.8,180.1-193.6,224.2C4883,540,4700.9,543.9,4595.5,507.5z M4873.4,271.8c19.2-17.2,34.5-55.6,34.5-86.2v-53.7H4745c-184,0-197.4,13.4-113.1,113.1c40.2,47.9,63.2,59.4,128.4,59.4C4806.3,304.3,4852.3,290.9,4873.4,271.8z"/><path d="M5521.1,505.6c-95.8-30.7-184-103.5-212.7-176.3c-9.6-24.9-17.2-88.1-17.2-139.9c0-120.7,61.3-193.5,231.9-276c99.7-47.9,124.6-69,128.4-111.2c9.6-76.7-47.9-99.6-224.2-86.2c-80.5,5.8-164.8,15.4-185.9,23c-38.3,11.5-42.1,3.8-55.6-97.7c-9.6-82.4-5.8-113.1,13.4-126.5c13.4-9.6,138-13.4,274-11.5c207,5.7,262.5,11.5,325.8,46c147.6,74.7,207,297,115,435c-19.2,30.7-90.1,78.6-174.4,118.8c-120.7,57.5-141.8,74.7-141.8,115c0,67.1,70.9,90.1,239.6,82.4l132.2-5.7l23,109.2l21.1,107.3l-57.5,11.5C5856.5,542,5611.2,532.4,5521.1,505.6z"/><path d="M7610,501.7c-116.9-42.1-272.1-199.3-312.4-320C7278.4,126.1,7265,26.5,7265-54c0-214.6,61.3-329.6,220.4-413.9c63.2-34.5,111.1-42.2,258.7-42.2c161,0,193.5,5.7,291.3,53.7c201.2,99.7,293.2,266.4,293.2,542.3c0,138-5.7,164.8-57.5,247.2c-88.1,141.8-214.6,201.2-419.7,199.3C7763.3,532.4,7659.8,519,7610,501.7z M7970.2,235.4c92-105.4,34.5-387.1-95.8-467.6c-149.5-92-274-7.7-274,187.8C7600.4,221.9,7828.4,396.3,7970.2,235.4z"/><path d="M6684.3,22.6c-49.8-272.1-90.1-502.1-90.1-509.7c0-7.7,67.1-13.4,147.6-9.6l147.6,5.7l51.7,251.1c51.7,252.9,103.5,400.5,153.3,442.7c15.3,11.5,61.3,24.9,103.5,28.7c74.7,5.7,76.7,7.7,128.4,139.9l49.8,134.1l-67.1,5.7c-97.7,9.6-145.6-7.7-216.5-72.8l-61.3-57.5l7.7,67.1l7.7,67.1h-136.1h-136.1L6684.3,22.6z"/></g></g>
</svg>